<svg version="1.1" viewBox="0.0 0.0 708.0 438.0" fill="none" stroke="none" stroke-linecap="square" stroke-miterlimit="10" width="708" height="438" xmlns:xlink="http://www.w3.org/1999/xlink" xmlns="http://www.w3.org/2000/svg"><path fill="#ffffff" d="M0 0L708.0 0L708.0 438.0L0 438.0L0 0Z" fill-rule="nonzero"/><path stroke="#333333" stroke-width="1.0" stroke-linecap="butt" d="M55.5 362.5L686.5 362.5" fill-rule="nonzero"/><path stroke="#cccccc" stroke-width="1.0" stroke-linecap="butt" d="M55.5 295.5L686.5 295.5" fill-rule="nonzero"/><path stroke="#cccccc" stroke-width="1.0" stroke-linecap="butt" d="M55.5 229.5L686.5 229.5" fill-rule="nonzero"/><path stroke="#cccccc" stroke-width="1.0" stroke-linecap="butt" d="M55.5 163.5L686.5 163.5" fill-rule="nonzero"/><path stroke="#cccccc" stroke-width="1.0" stroke-linecap="butt" d="M55.5 97.5L686.5 97.5" fill-rule="nonzero"/><clipPath id="id_0"><path d="M55.9 97.6L686.1 97.6L686.1 362.1L55.9 362.1L55.9 97.6Z" clip-rule="nonzero"/></clipPath><path stroke="#4285f4" stroke-width="2.0" stroke-linecap="butt" clip-path="url(#id_0)" d="M80.13846 314.35373L128.61539 269.68744L177.0923 214.62804L225.56923 196.29265L274.04614 192.32692L322.52307 174.56796L371.0 149.69139L419.47693 134.30783L467.95386 132.52817L516.4308 129.30486L564.9077 125.38447L613.38464 127.773674L661.8615 126.909" fill-rule="nonzero"/><path stroke="#db4437" stroke-width="2.0" stroke-linecap="butt" clip-path="url(#id_0)" d="M80.13846 337.54736L128.61539 315.9814L177.0923 282.60608L225.56923 258.15576L274.04614 253.97072L322.52307 237.21541L371.0 239.27634L419.47693 218.99768L467.95386 227.81693L516.4308 221.98471L564.9077 227.58813L613.38464 232.45917L661.8615 207.52345" fill-rule="nonzero"/><path fill="#000000" fill-opacity="0.0" clip-path="url(#id_0)" d="M83.13846 314.35373C83.13846 316.01056 81.79532 317.35373 80.13846 317.35373C78.481606 317.35373 77.13846 316.01056 77.13846 314.35373C77.13846 312.69687 78.481606 311.35373 80.13846 311.35373C81.79532 311.35373 83.13846 312.69687 83.13846 314.35373Z" fill-rule="nonzero"/><path fill="#000000" fill-opacity="0.0" clip-path="url(#id_0)" d="M131.61539 269.68744C131.61539 271.34427 130.27223 272.68744 128.61539 272.68744C126.95853 272.68744 125.61539 271.34427 125.61539 269.68744C125.61539 268.03058 126.95853 266.68744 128.61539 266.68744C130.27223 266.68744 131.61539 268.03058 131.61539 269.68744Z" fill-rule="nonzero"/><path fill="#000000" fill-opacity="0.0" clip-path="url(#id_0)" d="M180.0923 214.62804C180.0923 216.2849 178.74916 217.62804 177.0923 217.62804C175.43546 217.62804 174.0923 216.2849 174.0923 214.62804C174.0923 212.97119 175.43546 211.62804 177.0923 211.62804C178.74916 211.62804 180.0923 212.97119 180.0923 214.62804Z" fill-rule="nonzero"/><path fill="#000000" fill-opacity="0.0" clip-path="url(#id_0)" d="M228.56923 196.29265C228.56923 197.94951 227.22609 199.29265 225.56923 199.29265C223.91238 199.29265 222.56923 197.94951 222.56923 196.29265C222.56923 194.63579 223.91238 193.29265 225.56923 193.29265C227.22609 193.29265 228.56923 194.63579 228.56923 196.29265Z" fill-rule="nonzero"/><path fill="#000000" fill-opacity="0.0" clip-path="url(#id_0)" d="M277.04614 192.32692C277.04614 193.98378 275.703 195.32692 274.04614 195.32692C272.3893 195.32692 271.04614 193.98378 271.04614 192.32692C271.04614 190.67006 272.3893 189.32692 274.04614 189.32692C275.703 189.32692 277.04614 190.67006 277.04614 192.32692Z" fill-rule="nonzero"/><path fill="#000000" fill-opacity="0.0" clip-path="url(#id_0)" d="M325.52307 174.56796C325.52307 176.22482 324.17993 177.56796 322.52307 177.56796C320.8662 177.56796 319.52307 176.22482 319.52307 174.56796C319.52307 172.91112 320.8662 171.56796 322.52307 171.56796C324.17993 171.56796 325.52307 172.91112 325.52307 174.56796Z" fill-rule="nonzero"/><path fill="#000000" fill-opacity="0.0" clip-path="url(#id_0)" d="M374.0 149.69139C374.0 151.34825 372.65686 152.69139 371.0 152.69139C369.34314 152.69139 368.0 151.34825 368.0 149.69139C368.0 148.03455 369.34314 146.69139 371.0 146.69139C372.65686 146.69139 374.0 148.03455 374.0 149.69139Z" fill-rule="nonzero"/><path fill="#000000" fill-opacity="0.0" clip-path="url(#id_0)" d="M422.47693 134.30783C422.47693 135.96468 421.1338 137.30783 419.47693 137.30783C417.82007 137.30783 416.47693 135.96468 416.47693 134.30783C416.47693 132.65097 417.82007 131.30783 419.47693 131.30783C421.1338 131.30783 422.47693 132.65097 422.47693 134.30783Z" fill-rule="nonzero"/><path fill="#000000" fill-opacity="0.0" clip-path="url(#id_0)" d="M470.95386 132.52817C470.95386 134.18501 469.6107 135.52817 467.95386 135.52817C466.297 135.52817 464.95386 134.18501 464.95386 132.52817C464.95386 130.8713 466.297 129.52817 467.95386 129.52817C469.6107 129.52817 470.95386 130.8713 470.95386 132.52817Z" fill-rule="nonzero"/><path fill="#000000" fill-opacity="0.0" clip-path="url(#id_0)" d="M519.4308 129.30486C519.4308 130.9617 518.08765 132.30486 516.4308 132.30486C514.7739 132.30486 513.4308 130.9617 513.4308 129.30486C513.4308 127.647995 514.7739 126.30485 516.4308 126.30485C518.08765 126.30485 519.4308 127.647995 519.4308 129.30486Z" fill-rule="nonzero"/><path fill="#000000" fill-opacity="0.0" clip-path="url(#id_0)" d="M567.9077 125.38447C567.9077 127.04132 566.5646 128.38448 564.9077 128.38448C563.25085 128.38448 561.9077 127.04132 561.9077 125.38447C561.9077 123.727615 563.25085 122.38447 564.9077 122.38447C566.5646 122.38447 567.9077 123.727615 567.9077 125.38447Z" fill-rule="nonzero"/><path fill="#000000" fill-opacity="0.0" clip-path="url(#id_0)" d="M616.38464 127.773674C616.38464 129.43053 615.04144 130.77367 613.38464 130.77367C611.7278 130.77367 610.38464 129.43053 610.38464 127.773674C610.38464 126.11681 611.7278 124.773674 613.38464 124.773674C615.04144 124.773674 616.38464 126.11681 616.38464 127.773674Z" fill-rule="nonzero"/><path fill="#000000" fill-opacity="0.0" clip-path="url(#id_0)" d="M664.8615 126.909C664.8615 128.56584 663.5184 129.909 661.8615 129.909C660.2047 129.909 658.8615 128.56584 658.8615 126.909C658.8615 125.25214 660.2047 123.909 661.8615 123.909C663.5184 123.909 664.8615 125.25214 664.8615 126.909Z" fill-rule="nonzero"/><path fill="#000000" fill-opacity="0.0" clip-path="url(#id_0)" d="M83.13846 337.54736C83.13846 339.20422 81.79532 340.54736 80.13846 340.54736C78.481606 340.54736 77.13846 339.20422 77.13846 337.54736C77.13846 335.8905 78.481606 334.54736 80.13846 334.54736C81.79532 334.54736 83.13846 335.8905 83.13846 337.54736Z" fill-rule="nonzero"/><path fill="#000000" fill-opacity="0.0" clip-path="url(#id_0)" d="M131.61539 315.9814C131.61539 317.63828 130.27223 318.9814 128.61539 318.9814C126.95853 318.9814 125.61539 317.63828 125.61539 315.9814C125.61539 314.32455 126.95853 312.9814 128.61539 312.9814C130.27223 312.9814 131.61539 314.32455 131.61539 315.9814Z" fill-rule="nonzero"/><path fill="#000000" fill-opacity="0.0" clip-path="url(#id_0)" d="M180.0923 282.60608C180.0923 284.26294 178.74916 285.60608 177.0923 285.60608C175.43546 285.60608 174.0923 284.26294 174.0923 282.60608C174.0923 280.94922 175.43546 279.60608 177.0923 279.60608C178.74916 279.60608 180.0923 280.94922 180.0923 282.60608Z" fill-rule="nonzero"/><path fill="#000000" fill-opacity="0.0" clip-path="url(#id_0)" d="M228.56923 258.15576C228.56923 259.81262 227.22609 261.15576 225.56923 261.15576C223.91238 261.15576 222.56923 259.81262 222.56923 258.15576C222.56923 256.49893 223.91238 255.15578 225.56923 255.15578C227.22609 255.15578 228.56923 256.49893 228.56923 258.15576Z" fill-rule="nonzero"/><path fill="#000000" fill-opacity="0.0" clip-path="url(#id_0)" d="M277.04614 253.97072C277.04614 255.62758 275.703 256.97073 274.04614 256.97073C272.3893 256.97073 271.04614 255.62758 271.04614 253.97072C271.04614 252.31387 272.3893 250.97072 274.04614 250.97072C275.703 250.97072 277.04614 252.31387 277.04614 253.97072Z" fill-rule="nonzero"/><path fill="#000000" fill-opacity="0.0" clip-path="url(#id_0)" d="M325.52307 237.21541C325.52307 238.87227 324.17993 240.21541 322.52307 240.21541C320.8662 240.21541 319.52307 238.87227 319.52307 237.21541C319.52307 235.55856 320.8662 234.21541 322.52307 234.21541C324.17993 234.21541 325.52307 235.55856 325.52307 237.21541Z" fill-rule="nonzero"/><path fill="#000000" fill-opacity="0.0" clip-path="url(#id_0)" d="M374.0 239.27634C374.0 240.93318 372.65686 242.27634 371.0 242.27634C369.34314 242.27634 368.0 240.93318 368.0 239.27634C368.0 237.61948 369.34314 236.27634 371.0 236.27634C372.65686 236.27634 374.0 237.61948 374.0 239.27634Z" fill-rule="nonzero"/><path fill="#000000" fill-opacity="0.0" clip-path="url(#id_0)" d="M422.47693 218.99768C422.47693 220.65454 421.1338 221.99768 419.47693 221.99768C417.82007 221.99768 416.47693 220.65454 416.47693 218.99768C416.47693 217.34084 417.82007 215.99768 419.47693 215.99768C421.1338 215.99768 422.47693 217.34084 422.47693 218.99768Z" fill-rule="nonzero"/><path fill="#000000" fill-opacity="0.0" clip-path="url(#id_0)" d="M470.95386 227.81693C470.95386 229.47377 469.6107 230.81693 467.95386 230.81693C466.297 230.81693 464.95386 229.47377 464.95386 227.81693C464.95386 226.16006 466.297 224.81693 467.95386 224.81693C469.6107 224.81693 470.95386 226.16006 470.95386 227.81693Z" fill-rule="nonzero"/><path fill="#000000" fill-opacity="0.0" clip-path="url(#id_0)" d="M519.4308 221.98471C519.4308 223.64156 518.08765 224.98471 516.4308 224.98471C514.7739 224.98471 513.4308 223.64156 513.4308 221.98471C513.4308 220.32785 514.7739 218.98471 516.4308 218.98471C518.08765 218.98471 519.4308 220.32785 519.4308 221.98471Z" fill-rule="nonzero"/><path fill="#000000" fill-opacity="0.0" clip-path="url(#id_0)" d="M567.9077 227.58813C567.9077 229.245 566.5646 230.58813 564.9077 230.58813C563.25085 230.58813 561.9077 229.245 561.9077 227.58813C561.9077 225.93129 563.25085 224.58813 564.9077 224.58813C566.5646 224.58813 567.9077 225.93129 567.9077 227.58813Z" fill-rule="nonzero"/><path fill="#000000" fill-opacity="0.0" clip-path="url(#id_0)" d="M616.38464 232.45917C616.38464 234.11603 615.04144 235.45917 613.38464 235.45917C611.7278 235.45917 610.38464 234.11603 610.38464 232.45917C610.38464 230.80232 611.7278 229.45917 613.38464 229.45917C615.04144 229.45917 616.38464 230.80232 616.38464 232.45917Z" fill-rule="nonzero"/><path fill="#000000" fill-opacity="0.0" clip-path="url(#id_0)" d="M664.8615 207.52345C664.8615 209.1803 663.5184 210.52345 661.8615 210.52345C660.2047 210.52345 658.8615 209.1803 658.8615 207.52345C658.8615 205.8666 660.2047 204.52345 661.8615 204.52345C663.5184 204.52345 664.8615 205.8666 664.8615 207.52345Z" fill-rule="nonzero"/><path fill="#424242" d="M355.89062 405.49063L353.14062 405.49063L353.14062 413.1L352.03125 413.1L352.03125 405.49063L349.28125 405.49063L349.28125 404.56876L355.89062 404.56876L355.89062 405.49063ZM357.90625 407.52188Q358.625 406.64688 359.78125 406.64688Q361.79688 406.64688 361.8125 408.9125L361.8125 413.1L360.71875 413.1L360.71875 408.89688Q360.71875 408.225 360.40625 407.89688Q360.10938 407.56876 359.45312 407.56876Q358.92188 407.56876 358.51562 407.85Q358.125 408.13126 357.90625 408.58438L357.90625 413.1L356.82812 413.1L356.82812 404.1L357.90625 404.1L357.90625 407.52188ZM366.89062 407.725Q366.64062 407.69376 366.35938 407.69376Q365.28125 407.69376 364.90625 408.6L364.90625 413.1L363.82812 413.1L363.82812 406.75626L364.875 406.75626L364.89062 407.49063Q365.42188 406.64688 366.40625 406.64688Q366.71875 406.64688 366.89062 406.725L366.89062 407.725ZM370.45312 413.225Q369.15625 413.225 368.34375 412.38126Q367.54688 411.52188 367.54688 410.1L367.54688 409.9125Q367.54688 408.95938 367.90625 408.225Q368.26562 407.475 368.90625 407.06876Q369.5625 406.64688 370.3125 406.64688Q371.54688 406.64688 372.23438 407.45938Q372.92188 408.27188 372.92188 409.7875L372.92188 410.24063L368.625 410.24063Q368.65625 411.17813 369.17188 411.75626Q369.70312 412.33438 370.51562 412.33438Q371.07812 412.33438 371.46875 412.1Q371.875 411.86563 372.1875 411.475L372.84375 411.99063Q372.04688 413.225 370.45312 413.225ZM370.3125 407.5375Q369.65625 407.5375 369.20312 408.02188Q368.76562 408.49063 368.67188 409.35L371.84375 409.35L371.84375 409.27188Q371.79688 408.44376 371.39062 407.99063Q371.0 407.5375 370.3125 407.5375ZM377.73438 413.1Q377.64062 412.9125 377.57812 412.42813Q376.82812 413.225 375.78125 413.225Q374.84375 413.225 374.23438 412.69376Q373.64062 412.1625 373.64062 411.33438Q373.64062 410.35 374.39062 409.80313Q375.14062 409.25626 376.51562 409.25626L377.5625 409.25626L377.5625 408.75626Q377.5625 408.19376 377.21875 407.86563Q376.89062 407.52188 376.21875 407.52188Q375.64062 407.52188 375.25 407.81876Q374.85938 408.1 374.85938 408.52188L373.76562 408.52188Q373.76562 408.0375 374.09375 407.6Q374.4375 407.1625 375.01562 406.9125Q375.59375 406.64688 376.28125 406.64688Q377.39062 406.64688 378.0 407.19376Q378.625 407.74063 378.65625 408.69376L378.65625 411.61563Q378.65625 412.49063 378.875 413.00626L378.875 413.1L377.73438 413.1ZM375.9375 412.27188Q376.45312 412.27188 376.90625 412.00626Q377.35938 411.74063 377.5625 411.31876L377.5625 410.02188L376.71875 410.02188Q374.71875 410.02188 374.71875 411.19376Q374.71875 411.69376 375.0625 411.99063Q375.40625 412.27188 375.9375 412.27188ZM380.5625 409.88126Q380.5625 408.4125 381.25 407.5375Q381.9375 406.64688 383.0625 406.64688Q384.17188 406.64688 384.82812 407.39688L384.82812 404.1L385.90625 404.1L385.90625 413.1L384.90625 413.1L384.85938 412.4125Q384.20312 413.225 383.04688 413.225Q381.95312 413.225 381.25 412.31876Q380.5625 411.4125 380.5625 409.95938L380.5625 409.88126ZM381.64062 410.00626Q381.64062 411.08438 382.07812 411.69376Q382.53125 412.30313 383.3125 412.30313Q384.34375 412.30313 384.82812 411.36563L384.82812 408.45938Q384.34375 407.56876 383.32812 407.56876Q382.53125 407.56876 382.07812 408.17813Q381.64062 408.7875 381.64062 410.00626ZM391.51562 411.4125Q391.51562 410.975 391.17188 410.74063Q390.84375 410.49063 390.01562 410.31876Q389.20312 410.14688 388.71875 409.89688Q388.23438 409.64688 388.0 409.31876Q387.78125 408.975 387.78125 408.50626Q387.78125 407.725 388.4375 407.19376Q389.09375 406.64688 390.125 406.64688Q391.20312 406.64688 391.85938 407.20938Q392.53125 407.75626 392.53125 408.61563L391.45312 408.61563Q391.45312 408.17813 391.0625 407.86563Q390.6875 407.5375 390.125 407.5375Q389.53125 407.5375 389.1875 407.80313Q388.85938 408.05313 388.85938 408.45938Q388.85938 408.85 389.17188 409.05313Q389.48438 409.25626 390.29688 409.44376Q391.10938 409.61563 391.60938 409.86563Q392.10938 410.11563 392.34375 410.475Q392.59375 410.83438 392.59375 411.33438Q392.59375 412.19376 391.90625 412.70938Q391.23438 413.225 390.15625 413.225Q389.39062 413.225 388.79688 412.95938Q388.21875 412.67813 387.89062 412.19376Q387.5625 411.70938 387.5625 411.14688L388.64062 411.14688Q388.67188 411.69376 389.07812 412.02188Q389.48438 412.33438 390.15625 412.33438Q390.76562 412.33438 391.14062 412.08438Q391.51562 411.83438 391.51562 411.4125Z" fill-rule="nonzero"/><path fill="#757575" d="M48.9625 362.95938Q48.9625 364.86563 48.30625 365.80313Q47.665627 366.725 46.275 366.725Q44.915627 366.725 44.259377 365.81876Q43.603127 364.9125 43.571877 363.1L43.571877 361.6625Q43.571877 359.77188 44.2125 358.86563Q44.86875 357.94376 46.259377 357.94376Q47.634377 357.94376 48.290627 358.83438Q48.946877 359.70938 48.9625 361.55313L48.9625 362.95938ZM47.86875 361.475Q47.86875 360.1 47.478127 359.475Q47.103127 358.83438 46.259377 358.83438Q45.43125 358.83438 45.040627 359.475Q44.665627 360.1 44.665627 361.39688L44.665627 363.13126Q44.665627 364.50626 45.05625 365.17813Q45.4625 365.83438 46.275 365.83438Q47.071877 365.83438 47.4625 365.20938Q47.853127 364.58438 47.86875 363.25626L47.86875 361.475Z" fill-rule="nonzero"/><path fill="#757575" d="M28.196875 300.475L22.603125 300.475L22.603125 299.69376L25.55625 296.4125Q26.2125 295.6625 26.4625 295.20938Q26.7125 294.74063 26.7125 294.24063Q26.7125 293.56876 26.30625 293.14688Q25.915625 292.70938 25.228125 292.70938Q24.43125 292.70938 23.978125 293.17813Q23.525 293.63126 23.525 294.45938L22.446875 294.45938Q22.446875 293.27188 23.196875 292.55313Q23.9625 291.81876 25.228125 291.81876Q26.43125 291.81876 27.11875 292.44376Q27.80625 293.06876 27.80625 294.11563Q27.80625 295.36563 26.196875 297.11563L23.915625 299.58438L28.196875 299.58438L28.196875 300.475ZM34.9625 296.83438Q34.9625 298.74063 34.30625 299.67813Q33.665627 300.6 32.275 300.6Q30.915625 300.6 30.259375 299.69376Q29.603125 298.7875 29.571875 296.975L29.571875 295.5375Q29.571875 293.64688 30.2125 292.74063Q30.86875 291.81876 32.259377 291.81876Q33.634377 291.81876 34.290627 292.70938Q34.946877 293.58438 34.9625 295.42813L34.9625 296.83438ZM33.86875 295.35Q33.86875 293.975 33.478127 293.35Q33.103127 292.70938 32.259377 292.70938Q31.43125 292.70938 31.040625 293.35Q30.665625 293.975 30.665625 295.27188L30.665625 297.00626Q30.665625 298.38126 31.05625 299.05313Q31.4625 299.70938 32.275 299.70938Q33.071877 299.70938 33.4625 299.08438Q33.853127 298.45938 33.86875 297.13126L33.86875 295.35ZM41.9625 296.83438Q41.9625 298.74063 41.30625 299.67813Q40.665627 300.6 39.275 300.6Q37.915627 300.6 37.259377 299.69376Q36.603127 298.7875 36.571877 296.975L36.571877 295.5375Q36.571877 293.64688 37.2125 292.74063Q37.86875 291.81876 39.259377 291.81876Q40.634377 291.81876 41.290627 292.70938Q41.946877 293.58438 41.9625 295.42813L41.9625 296.83438ZM40.86875 295.35Q40.86875 293.975 40.478127 293.35Q40.103127 292.70938 39.259377 292.70938Q38.43125 292.70938 38.040627 293.35Q37.665627 293.975 37.665627 295.27188L37.665627 297.00626Q37.665627 298.38126 38.05625 299.05313Q38.4625 299.70938 39.275 299.70938Q40.071877 299.70938 40.4625 299.08438Q40.853127 298.45938 40.86875 297.13126L40.86875 295.35ZM48.9625 296.83438Q48.9625 298.74063 48.30625 299.67813Q47.665627 300.6 46.275 300.6Q44.915627 300.6 44.259377 299.69376Q43.603127 298.7875 43.571877 296.975L43.571877 295.5375Q43.571877 293.64688 44.2125 292.74063Q44.86875 291.81876 46.259377 291.81876Q47.634377 291.81876 48.290627 292.70938Q48.946877 293.58438 48.9625 295.42813L48.9625 296.83438ZM47.86875 295.35Q47.86875 293.975 47.478127 293.35Q47.103127 292.70938 46.259377 292.70938Q45.43125 292.70938 45.040627 293.35Q44.665627 293.975 44.665627 295.27188L44.665627 297.00626Q44.665627 298.38126 45.05625 299.05313Q45.4625 299.70938 46.275 299.70938Q47.071877 299.70938 47.4625 299.08438Q47.853127 298.45938 47.86875 297.13126L47.86875 295.35Z" fill-rule="nonzero"/><path fill="#757575" d="M27.18125 231.49063L28.36875 231.49063L28.36875 232.36563L27.18125 232.36563L27.18125 234.35L26.103125 234.35L26.103125 232.36563L22.2125 232.36563L22.2125 231.725L26.025 225.81876L27.18125 225.81876L27.18125 231.49063ZM23.446875 231.49063L26.103125 231.49063L26.103125 227.30313L25.9625 227.5375L23.446875 231.49063ZM34.9625 230.70938Q34.9625 232.61563 34.30625 233.55313Q33.665627 234.475 32.275 234.475Q30.915625 234.475 30.259375 233.56876Q29.603125 232.6625 29.571875 230.85L29.571875 229.4125Q29.571875 227.52188 30.2125 226.61563Q30.86875 225.69376 32.259377 225.69376Q33.634377 225.69376 34.290627 226.58438Q34.946877 227.45938 34.9625 229.30313L34.9625 230.70938ZM33.86875 229.225Q33.86875 227.85 33.478127 227.225Q33.103127 226.58438 32.259377 226.58438Q31.43125 226.58438 31.040625 227.225Q30.665625 227.85 30.665625 229.14688L30.665625 230.88126Q30.665625 232.25626 31.05625 232.92813Q31.4625 233.58438 32.275 233.58438Q33.071877 233.58438 33.4625 232.95938Q33.853127 232.33438 33.86875 231.00626L33.86875 229.225ZM41.9625 230.70938Q41.9625 232.61563 41.30625 233.55313Q40.665627 234.475 39.275 234.475Q37.915627 234.475 37.259377 233.56876Q36.603127 232.6625 36.571877 230.85L36.571877 229.4125Q36.571877 227.52188 37.2125 226.61563Q37.86875 225.69376 39.259377 225.69376Q40.634377 225.69376 41.290627 226.58438Q41.946877 227.45938 41.9625 229.30313L41.9625 230.70938ZM40.86875 229.225Q40.86875 227.85 40.478127 227.225Q40.103127 226.58438 39.259377 226.58438Q38.43125 226.58438 38.040627 227.225Q37.665627 227.85 37.665627 229.14688L37.665627 230.88126Q37.665627 232.25626 38.05625 232.92813Q38.4625 233.58438 39.275 233.58438Q40.071877 233.58438 40.4625 232.95938Q40.853127 232.33438 40.86875 231.00626L40.86875 229.225ZM48.9625 230.70938Q48.9625 232.61563 48.30625 233.55313Q47.665627 234.475 46.275 234.475Q44.915627 234.475 44.259377 233.56876Q43.603127 232.6625 43.571877 230.85L43.571877 229.4125Q43.571877 227.52188 44.2125 226.61563Q44.86875 225.69376 46.259377 225.69376Q47.634377 225.69376 48.290627 226.58438Q48.946877 227.45938 48.9625 229.30313L48.9625 230.70938ZM47.86875 229.225Q47.86875 227.85 47.478127 227.225Q47.103127 226.58438 46.259377 226.58438Q45.43125 226.58438 45.040627 227.225Q44.665627 227.85 44.665627 229.14688L44.665627 230.88126Q44.665627 232.25626 45.05625 232.92813Q45.4625 233.58438 46.275 233.58438Q47.071877 233.58438 47.4625 232.95938Q47.853127 232.33438 47.86875 231.00626L47.86875 229.225Z" fill-rule="nonzero"/><path fill="#757575" d="M26.86875 159.69376L26.86875 160.6L26.665625 160.6Q25.4 160.63126 24.65 161.36563Q23.9 162.08438 23.775 163.39688Q24.4625 162.63126 25.61875 162.63126Q26.728125 162.63126 27.4 163.4125Q28.071875 164.19376 28.071875 165.44376Q28.071875 166.75626 27.353125 167.55313Q26.634375 168.35 25.415625 168.35Q24.196875 168.35 23.43125 167.4125Q22.68125 166.45938 22.68125 164.975L22.68125 164.56876Q22.68125 162.20938 23.68125 160.95938Q24.68125 159.70938 26.665625 159.69376L26.86875 159.69376ZM25.446875 163.5375Q24.884375 163.5375 24.415625 163.86563Q23.946875 164.19376 23.759375 164.70938L23.759375 165.1Q23.759375 166.1625 24.228125 166.80313Q24.7125 167.44376 25.415625 167.44376Q26.15 167.44376 26.571875 166.9125Q26.99375 166.36563 26.99375 165.49063Q26.99375 164.61563 26.571875 164.08438Q26.15 163.5375 25.446875 163.5375ZM34.9625 164.58438Q34.9625 166.49063 34.30625 167.42813Q33.665627 168.35 32.275 168.35Q30.915625 168.35 30.259375 167.44376Q29.603125 166.5375 29.571875 164.725L29.571875 163.2875Q29.571875 161.39688 30.2125 160.49063Q30.86875 159.56876 32.259377 159.56876Q33.634377 159.56876 34.290627 160.45938Q34.946877 161.33438 34.9625 163.17813L34.9625 164.58438ZM33.86875 163.1Q33.86875 161.725 33.478127 161.1Q33.103127 160.45938 32.259377 160.45938Q31.43125 160.45938 31.040625 161.1Q30.665625 161.725 30.665625 163.02188L30.665625 164.75626Q30.665625 166.13126 31.05625 166.80313Q31.4625 167.45938 32.275 167.45938Q33.071877 167.45938 33.4625 166.83438Q33.853127 166.20938 33.86875 164.88126L33.86875 163.1ZM41.9625 164.58438Q41.9625 166.49063 41.30625 167.42813Q40.665627 168.35 39.275 168.35Q37.915627 168.35 37.259377 167.44376Q36.603127 166.5375 36.571877 164.725L36.571877 163.2875Q36.571877 161.39688 37.2125 160.49063Q37.86875 159.56876 39.259377 159.56876Q40.634377 159.56876 41.290627 160.45938Q41.946877 161.33438 41.9625 163.17813L41.9625 164.58438ZM40.86875 163.1Q40.86875 161.725 40.478127 161.1Q40.103127 160.45938 39.259377 160.45938Q38.43125 160.45938 38.040627 161.1Q37.665627 161.725 37.665627 163.02188L37.665627 164.75626Q37.665627 166.13126 38.05625 166.80313Q38.4625 167.45938 39.275 167.45938Q40.071877 167.45938 40.4625 166.83438Q40.853127 166.20938 40.86875 164.88126L40.86875 163.1ZM48.9625 164.58438Q48.9625 166.49063 48.30625 167.42813Q47.665627 168.35 46.275 168.35Q44.915627 168.35 44.259377 167.44376Q43.603127 166.5375 43.571877 164.725L43.571877 163.2875Q43.571877 161.39688 44.2125 160.49063Q44.86875 159.56876 46.259377 159.56876Q47.634377 159.56876 48.290627 160.45938Q48.946877 161.33438 48.9625 163.17813L48.9625 164.58438ZM47.86875 163.1Q47.86875 161.725 47.478127 161.1Q47.103127 160.45938 46.259377 160.45938Q45.43125 160.45938 45.040627 161.1Q44.665627 161.725 44.665627 163.02188L44.665627 164.75626Q44.665627 166.13126 45.05625 166.80313Q45.4625 167.45938 46.275 167.45938Q47.071877 167.45938 47.4625 166.83438Q47.853127 166.20938 47.86875 164.88126L47.86875 163.1Z" fill-rule="nonzero"/><path fill="#757575" d="M27.790625 95.7875Q27.790625 96.42812 27.446875 96.92812Q27.103125 97.42812 26.540625 97.70937Q27.196875 97.99062 27.5875 98.55312Q27.978125 99.1 27.978125 99.80312Q27.978125 100.89687 27.228125 101.56875Q26.49375 102.225 25.275 102.225Q24.040625 102.225 23.290625 101.56875Q22.55625 100.89687 22.55625 99.80312Q22.55625 99.1 22.93125 98.55312Q23.30625 97.99062 23.978125 97.70937Q23.415625 97.42812 23.0875 96.92812Q22.759375 96.42812 22.759375 95.7875Q22.759375 94.70937 23.446875 94.08437Q24.134375 93.44375 25.275 93.44375Q26.4 93.44375 27.0875 94.08437Q27.790625 94.70937 27.790625 95.7875ZM26.9 99.77187Q26.9 99.05312 26.446875 98.61562Q25.99375 98.1625 25.259375 98.1625Q24.525 98.1625 24.071875 98.61562Q23.634375 99.05312 23.634375 99.7875Q23.634375 100.50625 24.071875 100.92812Q24.509375 101.33437 25.275 101.33437Q26.025 101.33437 26.4625 100.9125Q26.9 100.49062 26.9 99.77187ZM25.275 94.33437Q24.634375 94.33437 24.228125 94.74062Q23.8375 95.13125 23.8375 95.81875Q23.8375 96.45937 24.228125 96.86562Q24.61875 97.27187 25.259375 97.27187Q25.915625 97.27187 26.30625 96.86562Q26.696875 96.45937 26.696875 95.81875Q26.696875 95.1625 26.290625 94.75625Q25.884375 94.33437 25.275 94.33437ZM34.9625 98.45937Q34.9625 100.36562 34.30625 101.30312Q33.665627 102.225 32.275 102.225Q30.915625 102.225 30.259375 101.31875Q29.603125 100.4125 29.571875 98.6L29.571875 97.1625Q29.571875 95.27187 30.2125 94.36562Q30.86875 93.44375 32.259377 93.44375Q33.634377 93.44375 34.290627 94.33437Q34.946877 95.20937 34.9625 97.05312L34.9625 98.45937ZM33.86875 96.975Q33.86875 95.6 33.478127 94.975Q33.103127 94.33437 32.259377 94.33437Q31.43125 94.33437 31.040625 94.975Q30.665625 95.6 30.665625 96.89687L30.665625 98.63125Q30.665625 100.00625 31.05625 100.67812Q31.4625 101.33437 32.275 101.33437Q33.071877 101.33437 33.4625 100.70937Q33.853127 100.08437 33.86875 98.75625L33.86875 96.975ZM41.9625 98.45937Q41.9625 100.36562 41.30625 101.30312Q40.665627 102.225 39.275 102.225Q37.915627 102.225 37.259377 101.31875Q36.603127 100.4125 36.571877 98.6L36.571877 97.1625Q36.571877 95.27187 37.2125 94.36562Q37.86875 93.44375 39.259377 93.44375Q40.634377 93.44375 41.290627 94.33437Q41.946877 95.20937 41.9625 97.05312L41.9625 98.45937ZM40.86875 96.975Q40.86875 95.6 40.478127 94.975Q40.103127 94.33437 39.259377 94.33437Q38.43125 94.33437 38.040627 94.975Q37.665627 95.6 37.665627 96.89687L37.665627 98.63125Q37.665627 100.00625 38.05625 100.67812Q38.4625 101.33437 39.275 101.33437Q40.071877 101.33437 40.4625 100.70937Q40.853127 100.08437 40.86875 98.75625L40.86875 96.975ZM48.9625 98.45937Q48.9625 100.36562 48.30625 101.30312Q47.665627 102.225 46.275 102.225Q44.915627 102.225 44.259377 101.31875Q43.603127 100.4125 43.571877 98.6L43.571877 97.1625Q43.571877 95.27187 44.2125 94.36562Q44.86875 93.44375 46.259377 93.44375Q47.634377 93.44375 48.290627 94.33437Q48.946877 95.20937 48.9625 97.05312L48.9625 98.45937ZM47.86875 96.975Q47.86875 95.6 47.478127 94.975Q47.103127 94.33437 46.259377 94.33437Q45.43125 94.33437 45.040627 94.975Q44.665627 95.6 44.665627 96.89687L44.665627 98.63125Q44.665627 100.00625 45.05625 100.67812Q45.4625 101.33437 46.275 101.33437Q47.071877 101.33437 47.4625 100.70937Q47.853127 100.08437 47.86875 98.75625L47.86875 96.975Z" fill-rule="nonzero"/><path fill="#757575" d="M80.90408 380.1L79.82596 380.1L79.82596 372.88126L77.63846 373.67813L77.63846 372.69376L80.74783 371.52188L80.90408 371.52188L80.90408 380.1Z" fill-rule="nonzero"/><path fill="#757575" d="M131.41226 380.1L125.81851 380.1L125.81851 379.31876L128.77164 376.0375Q129.42789 375.2875 129.67789 374.83438Q129.92789 374.36563 129.92789 373.86563Q129.92789 373.19376 129.52164 372.77188Q129.13101 372.33438 128.44351 372.33438Q127.64664 372.33438 127.19351 372.80313Q126.74039 373.25626 126.74039 374.08438L125.66226 374.08438Q125.66226 372.89688 126.41226 372.17813Q127.17789 371.44376 128.44351 371.44376Q129.64664 371.44376 130.33414 372.06876Q131.02164 372.69376 131.02164 373.74063Q131.02164 374.99063 129.41226 376.74063L127.13101 379.20938L131.41226 379.20938L131.41226 380.1Z" fill-rule="nonzero"/><path fill="#757575" d="M178.87355 377.24063L180.06105 377.24063L180.06105 378.11563L178.87355 378.11563L178.87355 380.1L177.79543 380.1L177.79543 378.11563L173.9048 378.11563L173.9048 377.475L177.7173 371.56876L178.87355 371.56876L178.87355 377.24063ZM175.13918 377.24063L177.79543 377.24063L177.79543 373.05313L177.6548 373.2875L175.13918 377.24063Z" fill-rule="nonzero"/><path fill="#757575" d="M227.03798 371.56876L227.03798 372.475L226.83485 372.475Q225.56923 372.50626 224.81923 373.24063Q224.06923 373.95938 223.94423 375.27188Q224.63173 374.50626 225.78798 374.50626Q226.89735 374.50626 227.56923 375.2875Q228.2411 376.06876 228.2411 377.31876Q228.2411 378.63126 227.52235 379.42813Q226.8036 380.225 225.58485 380.225Q224.3661 380.225 223.60048 379.2875Q222.85048 378.33438 222.85048 376.85L222.85048 376.44376Q222.85048 374.08438 223.85048 372.83438Q224.85048 371.58438 226.83485 371.56876L227.03798 371.56876ZM225.6161 375.4125Q225.0536 375.4125 224.58485 375.74063Q224.1161 376.06876 223.9286 376.58438L223.9286 376.975Q223.9286 378.0375 224.39735 378.67813Q224.88173 379.31876 225.58485 379.31876Q226.31923 379.31876 226.7411 378.7875Q227.16298 378.24063 227.16298 377.36563Q227.16298 376.49063 226.7411 375.95938Q226.31923 375.4125 225.6161 375.4125Z" fill-rule="nonzero"/><path fill="#757575" d="M276.43677 373.7875Q276.43677 374.42813 276.09302 374.92813Q275.74927 375.42813 275.18677 375.70938Q275.84302 375.99063 276.23364 376.55313Q276.62427 377.1 276.62427 377.80313Q276.62427 378.89688 275.87427 379.56876Q275.1399 380.225 273.92114 380.225Q272.68677 380.225 271.93677 379.56876Q271.2024 378.89688 271.2024 377.80313Q271.2024 377.1 271.5774 376.55313Q271.9524 375.99063 272.62427 375.70938Q272.06177 375.42813 271.73364 374.92813Q271.40552 374.42813 271.40552 373.7875Q271.40552 372.70938 272.09302 372.08438Q272.78052 371.44376 273.92114 371.44376Q275.04614 371.44376 275.73364 372.08438Q276.43677 372.70938 276.43677 373.7875ZM275.54614 377.77188Q275.54614 377.05313 275.09302 376.61563Q274.6399 376.1625 273.90552 376.1625Q273.17114 376.1625 272.71802 376.61563Q272.28052 377.05313 272.28052 377.7875Q272.28052 378.50626 272.71802 378.92813Q273.15552 379.33438 273.92114 379.33438Q274.67114 379.33438 275.10864 378.9125Q275.54614 378.49063 275.54614 377.77188ZM273.92114 372.33438Q273.28052 372.33438 272.87427 372.74063Q272.48364 373.13126 272.48364 373.81876Q272.48364 374.45938 272.87427 374.86563Q273.2649 375.27188 273.90552 375.27188Q274.56177 375.27188 274.9524 374.86563Q275.34302 374.45938 275.34302 373.81876Q275.34302 373.1625 274.93677 372.75626Q274.53052 372.33438 273.92114 372.33438Z" fill-rule="nonzero"/><path fill="#757575" d="M319.7887 380.1L318.71057 380.1L318.71057 372.88126L316.52307 373.67813L316.52307 372.69376L319.63245 371.52188L319.7887 371.52188L319.7887 380.1ZM328.58557 376.45938Q328.58557 378.36563 327.92932 379.30313Q327.2887 380.225 325.89807 380.225Q324.5387 380.225 323.88245 379.31876Q323.2262 378.4125 323.19495 376.6L323.19495 375.1625Q323.19495 373.27188 323.83557 372.36563Q324.49182 371.44376 325.88245 371.44376Q327.25745 371.44376 327.9137 372.33438Q328.56995 373.20938 328.58557 375.05313L328.58557 376.45938ZM327.49182 374.975Q327.49182 373.6 327.1012 372.975Q326.7262 372.33438 325.88245 372.33438Q325.05432 372.33438 324.6637 372.975Q324.2887 373.6 324.2887 374.89688L324.2887 376.63126Q324.2887 378.00626 324.67932 378.67813Q325.08557 379.33438 325.89807 379.33438Q326.69495 379.33438 327.08557 378.70938Q327.4762 378.08438 327.49182 376.75626L327.49182 374.975Z" fill-rule="nonzero"/><path fill="#757575" d="M368.26562 380.1L367.1875 380.1L367.1875 372.88126L365.0 373.67813L365.0 372.69376L368.10938 371.52188L368.26562 371.52188L368.26562 380.1ZM377.29688 380.1L371.70312 380.1L371.70312 379.31876L374.65625 376.0375Q375.3125 375.2875 375.5625 374.83438Q375.8125 374.36563 375.8125 373.86563Q375.8125 373.19376 375.40625 372.77188Q375.01562 372.33438 374.32812 372.33438Q373.53125 372.33438 373.07812 372.80313Q372.625 373.25626 372.625 374.08438L371.54688 374.08438Q371.54688 372.89688 372.29688 372.17813Q373.0625 371.44376 374.32812 371.44376Q375.53125 371.44376 376.21875 372.06876Q376.90625 372.69376 376.90625 373.74063Q376.90625 374.99063 375.29688 376.74063L373.01562 379.20938L377.29688 379.20938L377.29688 380.1Z" fill-rule="nonzero"/><path fill="#757575" d="M416.74255 380.1L415.66443 380.1L415.66443 372.88126L413.47693 373.67813L413.47693 372.69376L416.5863 371.52188L416.74255 371.52188L416.74255 380.1ZM424.75818 377.24063L425.94568 377.24063L425.94568 378.11563L424.75818 378.11563L424.75818 380.1L423.68005 380.1L423.68005 378.11563L419.78943 378.11563L419.78943 377.475L423.60193 371.56876L424.75818 371.56876L424.75818 377.24063ZM421.0238 377.24063L423.68005 377.24063L423.68005 373.05313L423.53943 373.2875L421.0238 377.24063Z" fill-rule="nonzero"/><path fill="#757575" d="M465.21948 380.1L464.14136 380.1L464.14136 372.88126L461.95386 373.67813L461.95386 372.69376L465.06323 371.52188L465.21948 371.52188L465.21948 380.1ZM472.9226 371.56876L472.9226 372.475L472.71948 372.475Q471.45386 372.50626 470.70386 373.24063Q469.95386 373.95938 469.82886 375.27188Q470.51636 374.50626 471.6726 374.50626Q472.78198 374.50626 473.45386 375.2875Q474.12573 376.06876 474.12573 377.31876Q474.12573 378.63126 473.40698 379.42813Q472.68823 380.225 471.46948 380.225Q470.25073 380.225 469.4851 379.2875Q468.7351 378.33438 468.7351 376.85L468.7351 376.44376Q468.7351 374.08438 469.7351 372.83438Q470.7351 371.58438 472.71948 371.56876L472.9226 371.56876ZM471.50073 375.4125Q470.93823 375.4125 470.46948 375.74063Q470.00073 376.06876 469.81323 376.58438L469.81323 376.975Q469.81323 378.0375 470.28198 378.67813Q470.76636 379.31876 471.46948 379.31876Q472.20386 379.31876 472.62573 378.7875Q473.0476 378.24063 473.0476 377.36563Q473.0476 376.49063 472.62573 375.95938Q472.20386 375.4125 471.50073 375.4125Z" fill-rule="nonzero"/><path fill="#757575" d="M513.6964 380.1L512.6183 380.1L512.6183 372.88126L510.43076 373.67813L510.43076 372.69376L513.54016 371.52188L513.6964 371.52188L513.6964 380.1ZM522.3214 373.7875Q522.3214 374.42813 521.97766 374.92813Q521.6339 375.42813 521.0714 375.70938Q521.72766 375.99063 522.1183 376.55313Q522.5089 377.1 522.5089 377.80313Q522.5089 378.89688 521.7589 379.56876Q521.02454 380.225 519.8058 380.225Q518.5714 380.225 517.8214 379.56876Q517.08704 378.89688 517.08704 377.80313Q517.08704 377.1 517.46204 376.55313Q517.83704 375.99063 518.5089 375.70938Q517.9464 375.42813 517.6183 374.92813Q517.29016 374.42813 517.29016 373.7875Q517.29016 372.70938 517.97766 372.08438Q518.66516 371.44376 519.8058 371.44376Q520.9308 371.44376 521.6183 372.08438Q522.3214 372.70938 522.3214 373.7875ZM521.4308 377.77188Q521.4308 377.05313 520.97766 376.61563Q520.52454 376.1625 519.79016 376.1625Q519.0558 376.1625 518.60266 376.61563Q518.16516 377.05313 518.16516 377.7875Q518.16516 378.50626 518.60266 378.92813Q519.04016 379.33438 519.8058 379.33438Q520.5558 379.33438 520.9933 378.9125Q521.4308 378.49063 521.4308 377.77188ZM519.8058 372.33438Q519.16516 372.33438 518.7589 372.74063Q518.3683 373.13126 518.3683 373.81876Q518.3683 374.45938 518.7589 374.86563Q519.14954 375.27188 519.79016 375.27188Q520.4464 375.27188 520.83704 374.86563Q521.22766 374.45938 521.22766 373.81876Q521.22766 373.1625 520.8214 372.75626Q520.41516 372.33438 519.8058 372.33438Z" fill-rule="nonzero"/><path fill="#757575" d="M564.2046 380.1L558.61084 380.1L558.61084 379.31876L561.56396 376.0375Q562.2202 375.2875 562.4702 374.83438Q562.7202 374.36563 562.7202 373.86563Q562.7202 373.19376 562.31396 372.77188Q561.92334 372.33438 561.23584 372.33438Q560.43896 372.33438 559.98584 372.80313Q559.5327 373.25626 559.5327 374.08438L558.4546 374.08438Q558.4546 372.89688 559.2046 372.17813Q559.9702 371.44376 561.23584 371.44376Q562.43896 371.44376 563.12646 372.06876Q563.81396 372.69376 563.81396 373.74063Q563.81396 374.99063 562.2046 376.74063L559.92334 379.20938L564.2046 379.20938L564.2046 380.1ZM570.9702 376.45938Q570.9702 378.36563 570.31396 379.30313Q569.67334 380.225 568.2827 380.225Q566.92334 380.225 566.2671 379.31876Q565.61084 378.4125 565.5796 376.6L565.5796 375.1625Q565.5796 373.27188 566.2202 372.36563Q566.87646 371.44376 568.2671 371.44376Q569.6421 371.44376 570.29834 372.33438Q570.9546 373.20938 570.9702 375.05313L570.9702 376.45938ZM569.87646 374.975Q569.87646 373.6 569.48584 372.975Q569.11084 372.33438 568.2671 372.33438Q567.43896 372.33438 567.04834 372.975Q566.67334 373.6 566.67334 374.89688L566.67334 376.63126Q566.67334 378.00626 567.06396 378.67813Q567.4702 379.33438 568.2827 379.33438Q569.0796 379.33438 569.4702 378.70938Q569.86084 378.08438 569.87646 376.75626L569.87646 374.975Z" fill-rule="nonzero"/><path fill="#757575" d="M612.6815 380.1L607.08777 380.1L607.08777 379.31876L610.0409 376.0375Q610.69714 375.2875 610.94714 374.83438Q611.19714 374.36563 611.19714 373.86563Q611.19714 373.19376 610.7909 372.77188Q610.40027 372.33438 609.71277 372.33438Q608.9159 372.33438 608.46277 372.80313Q608.00964 373.25626 608.00964 374.08438L606.9315 374.08438Q606.9315 372.89688 607.6815 372.17813Q608.44714 371.44376 609.71277 371.44376Q610.9159 371.44376 611.6034 372.06876Q612.2909 372.69376 612.2909 373.74063Q612.2909 374.99063 610.6815 376.74063L608.40027 379.20938L612.6815 379.20938L612.6815 380.1ZM619.6815 380.1L614.08777 380.1L614.08777 379.31876L617.0409 376.0375Q617.69714 375.2875 617.94714 374.83438Q618.19714 374.36563 618.19714 373.86563Q618.19714 373.19376 617.7909 372.77188Q617.40027 372.33438 616.71277 372.33438Q615.9159 372.33438 615.46277 372.80313Q615.00964 373.25626 615.00964 374.08438L613.9315 374.08438Q613.9315 372.89688 614.6815 372.17813Q615.44714 371.44376 616.71277 371.44376Q617.9159 371.44376 618.6034 372.06876Q619.2909 372.69376 619.2909 373.74063Q619.2909 374.99063 617.6815 376.74063L615.40027 379.20938L619.6815 379.20938L619.6815 380.1Z" fill-rule="nonzero"/><path fill="#757575" d="M661.1584 380.1L655.56464 380.1L655.56464 379.31876L658.51776 376.0375Q659.174 375.2875 659.424 374.83438Q659.674 374.36563 659.674 373.86563Q659.674 373.19376 659.26776 372.77188Q658.87714 372.33438 658.18964 372.33438Q657.39276 372.33438 656.93964 372.80313Q656.4865 373.25626 656.4865 374.08438L655.4084 374.08438Q655.4084 372.89688 656.1584 372.17813Q656.924 371.44376 658.18964 371.44376Q659.39276 371.44376 660.08026 372.06876Q660.76776 372.69376 660.76776 373.74063Q660.76776 374.99063 659.1584 376.74063L656.87714 379.20938L661.1584 379.20938L661.1584 380.1ZM667.14276 377.24063L668.33026 377.24063L668.33026 378.11563L667.14276 378.11563L667.14276 380.1L666.06464 380.1L666.06464 378.11563L662.174 378.11563L662.174 377.475L665.9865 371.56876L667.14276 371.56876L667.14276 377.24063ZM663.4084 377.24063L666.06464 377.24063L666.06464 373.05313L665.924 373.2875L663.4084 377.24063Z" fill-rule="nonzero"/><path stroke="#4285f4" stroke-width="4.0" stroke-linecap="butt" d="M217.0 68.0L229.0 68.0" fill-rule="nonzero"/><path fill="#757575" d="M241.125 69.046875L239.10938 69.046875L239.10938 72.5L237.98438 72.5L237.98438 63.96875L240.8125 63.96875Q242.25 63.96875 243.01562 64.625Q243.79688 65.28125 243.79688 66.53125Q243.79688 67.328125 243.35938 67.921875Q242.9375 68.515625 242.17188 68.8125L244.17188 72.421875L244.17188 72.5L242.96875 72.5L241.125 69.046875ZM239.10938 68.125L240.84375 68.125Q241.6875 68.125 242.17188 67.703125Q242.67188 67.265625 242.67188 66.53125Q242.67188 65.75 242.20312 65.328125Q241.73438 64.90625 240.84375 64.890625L239.10938 64.890625L239.10938 68.125ZM248.73438 72.5Q248.64062 72.3125 248.57812 71.828125Q247.82812 72.625 246.78125 72.625Q245.84375 72.625 245.23438 72.09375Q244.64062 71.5625 244.64062 70.734375Q244.64062 69.75 245.39062 69.203125Q246.14062 68.65625 247.51562 68.65625L248.5625 68.65625L248.5625 68.15625Q248.5625 67.59375 248.21875 67.265625Q247.89062 66.921875 247.21875 66.921875Q246.64062 66.921875 246.25 67.21875Q245.85938 67.5 245.85938 67.921875L244.76562 67.921875Q244.76562 67.4375 245.09375 67.0Q245.4375 66.5625 246.01562 66.3125Q246.59375 66.046875 247.28125 66.046875Q248.39062 66.046875 249.0 66.59375Q249.625 67.140625 249.65625 68.09375L249.65625 71.015625Q249.65625 71.890625 249.875 72.40625L249.875 72.5L248.73438 72.5ZM246.9375 71.671875Q247.45312 71.671875 247.90625 71.40625Q248.35938 71.140625 248.5625 70.71875L248.5625 69.421875L247.71875 69.421875Q245.71875 69.421875 245.71875 70.59375Q245.71875 71.09375 246.0625 71.390625Q246.40625 71.671875 246.9375 71.671875ZM257.4375 71.0L258.65625 66.15625L259.73438 66.15625L257.89062 72.5L257.01562 72.5L255.46875 67.6875L253.96875 72.5L253.09375 72.5L251.25 66.15625L252.32812 66.15625L253.57812 70.90625L255.0625 66.15625L255.92188 66.15625L257.4375 71.0ZM270.54688 72.5L269.42188 72.5L269.42188 68.5625L265.10938 68.5625L265.10938 72.5L263.98438 72.5L263.98438 63.96875L265.10938 63.96875L265.10938 67.640625L269.42188 67.640625L269.42188 63.96875L270.54688 63.96875L270.54688 72.5ZM274.89062 70.90625L276.375 66.15625L277.53125 66.15625L274.98438 73.484375Q274.39062 75.0625 273.10938 75.0625L272.89062 75.046875L272.5 74.96875L272.5 74.09375L272.78125 74.109375Q273.34375 74.109375 273.64062 73.890625Q273.95312 73.671875 274.15625 73.078125L274.39062 72.421875L272.125 66.15625L273.3125 66.15625L274.89062 70.90625ZM284.17188 69.40625Q284.17188 70.84375 283.51562 71.734375Q282.85938 72.625 281.71875 72.625Q280.5625 72.625 279.90625 71.890625L279.90625 74.9375L278.82812 74.9375L278.82812 66.15625L279.8125 66.15625L279.85938 66.859375Q280.53125 66.046875 281.70312 66.046875Q282.84375 66.046875 283.5 66.90625Q284.17188 67.765625 284.17188 69.296875L284.17188 69.40625ZM283.09375 69.28125Q283.09375 68.203125 282.625 67.59375Q282.17188 66.96875 281.375 66.96875Q280.39062 66.96875 279.90625 67.828125L279.90625 70.859375Q280.39062 71.734375 281.39062 71.734375Q282.17188 71.734375 282.625 71.125Q283.09375 70.5 283.09375 69.28125ZM288.45312 72.625Q287.15625 72.625 286.34375 71.78125Q285.54688 70.921875 285.54688 69.5L285.54688 69.3125Q285.54688 68.359375 285.90625 67.625Q286.26562 66.875 286.90625 66.46875Q287.5625 66.046875 288.3125 66.046875Q289.54688 66.046875 290.23438 66.859375Q290.92188 67.671875 290.92188 69.1875L290.92188 69.640625L286.625 69.640625Q286.65625 70.578125 287.17188 71.15625Q287.70312 71.734375 288.51562 71.734375Q289.07812 71.734375 289.46875 71.5Q289.875 71.265625 290.1875 70.875L290.84375 71.390625Q290.04688 72.625 288.45312 72.625ZM288.3125 66.9375Q287.65625 66.9375 287.20312 67.421875Q286.76562 67.890625 286.67188 68.75L289.84375 68.75L289.84375 68.671875Q289.79688 67.84375 289.39062 67.390625Q289.0 66.9375 288.3125 66.9375ZM294.89062 67.125Q294.64062 67.09375 294.35938 67.09375Q293.28125 67.09375 292.90625 68.0L292.90625 72.5L291.82812 72.5L291.82812 66.15625L292.875 66.15625L292.89062 66.890625Q293.42188 66.046875 294.40625 66.046875Q294.71875 66.046875 294.89062 66.125L294.89062 67.125ZM298.07812 69.3125L295.21875 69.3125L295.21875 68.4375L298.07812 68.4375L298.07812 69.3125ZM301.8125 71.0L304.25 63.96875L305.48438 63.96875L302.3125 72.5L301.32812 72.5L298.17188 63.96875L299.39062 63.96875L301.8125 71.0ZM312.07812 69.3125L309.21875 69.3125L309.21875 68.4375L312.07812 68.4375L312.07812 69.3125ZM319.125 69.046875L317.10938 69.046875L317.10938 72.5L315.98438 72.5L315.98438 63.96875L318.8125 63.96875Q320.25 63.96875 321.01562 64.625Q321.79688 65.28125 321.79688 66.53125Q321.79688 67.328125 321.35938 67.921875Q320.9375 68.515625 320.17188 68.8125L322.17188 72.421875L322.17188 72.5L320.96875 72.5L319.125 69.046875ZM317.10938 68.125L318.84375 68.125Q319.6875 68.125 320.17188 67.703125Q320.67188 67.265625 320.67188 66.53125Q320.67188 65.75 320.20312 65.328125Q319.73438 64.90625 318.84375 64.890625L317.10938 64.890625L317.10938 68.125ZM325.45312 72.625Q324.15625 72.625 323.34375 71.78125Q322.54688 70.921875 322.54688 69.5L322.54688 69.3125Q322.54688 68.359375 322.90625 67.625Q323.26562 66.875 323.90625 66.46875Q324.5625 66.046875 325.3125 66.046875Q326.54688 66.046875 327.23438 66.859375Q327.92188 67.671875 327.92188 69.1875L327.92188 69.640625L323.625 69.640625Q323.65625 70.578125 324.17188 71.15625Q324.70312 71.734375 325.51562 71.734375Q326.07812 71.734375 326.46875 71.5Q326.875 71.265625 327.1875 70.875L327.84375 71.390625Q327.04688 72.625 325.45312 72.625ZM325.3125 66.9375Q324.65625 66.9375 324.20312 67.421875Q323.76562 67.890625 323.67188 68.75L326.84375 68.75L326.84375 68.671875Q326.79688 67.84375 326.39062 67.390625Q326.0 66.9375 325.3125 66.9375ZM331.35938 71.734375Q331.9375 71.734375 332.375 71.390625Q332.8125 71.03125 332.85938 70.5L333.89062 70.5Q333.85938 71.046875 333.5 71.546875Q333.15625 72.03125 332.57812 72.328125Q332.01562 72.625 331.35938 72.625Q330.0625 72.625 329.29688 71.765625Q328.54688 70.890625 328.54688 69.390625L328.54688 69.203125Q328.54688 68.28125 328.875 67.5625Q329.21875 66.84375 329.84375 66.453125Q330.48438 66.046875 331.35938 66.046875Q332.42188 66.046875 333.125 66.6875Q333.84375 67.3125 333.89062 68.34375L332.85938 68.34375Q332.8125 67.71875 332.39062 67.328125Q331.96875 66.9375 331.35938 66.9375Q330.53125 66.9375 330.07812 67.53125Q329.625 68.125 329.625 69.25L329.625 69.453125Q329.625 70.546875 330.07812 71.140625Q330.53125 71.734375 331.35938 71.734375ZM337.45312 72.625Q336.15625 72.625 335.34375 71.78125Q334.54688 70.921875 334.54688 69.5L334.54688 69.3125Q334.54688 68.359375 334.90625 67.625Q335.26562 66.875 335.90625 66.46875Q336.5625 66.046875 337.3125 66.046875Q338.54688 66.046875 339.23438 66.859375Q339.92188 67.671875 339.92188 69.1875L339.92188 69.640625L335.625 69.640625Q335.65625 70.578125 336.17188 71.15625Q336.70312 71.734375 337.51562 71.734375Q338.07812 71.734375 338.46875 71.5Q338.875 71.265625 339.1875 70.875L339.84375 71.390625Q339.04688 72.625 337.45312 72.625ZM337.3125 66.9375Q336.65625 66.9375 336.20312 67.421875Q335.76562 67.890625 335.67188 68.75L338.84375 68.75L338.84375 68.671875Q338.79688 67.84375 338.39062 67.390625Q338.0 66.9375 337.3125 66.9375ZM342.0 72.5L340.92188 72.5L340.92188 66.15625L342.0 66.15625L342.0 72.5ZM340.82812 64.484375Q340.82812 64.21875 340.98438 64.03125Q341.15625 63.84375 341.46875 63.84375Q341.78125 63.84375 341.9375 64.03125Q342.10938 64.21875 342.10938 64.484375Q342.10938 64.734375 341.9375 64.921875Q341.78125 65.09375 341.46875 65.09375Q341.15625 65.09375 340.98438 64.921875Q340.82812 64.734375 340.82812 64.484375ZM345.90625 71.03125L347.48438 66.15625L348.59375 66.15625L346.3125 72.5L345.48438 72.5L343.1875 66.15625L344.29688 66.15625L345.90625 71.03125ZM352.45312 72.625Q351.15625 72.625 350.34375 71.78125Q349.54688 70.921875 349.54688 69.5L349.54688 69.3125Q349.54688 68.359375 349.90625 67.625Q350.26562 66.875 350.90625 66.46875Q351.5625 66.046875 352.3125 66.046875Q353.54688 66.046875 354.23438 66.859375Q354.92188 67.671875 354.92188 69.1875L354.92188 69.640625L350.625 69.640625Q350.65625 70.578125 351.17188 71.15625Q351.70312 71.734375 352.51562 71.734375Q353.07812 71.734375 353.46875 71.5Q353.875 71.265625 354.1875 70.875L354.84375 71.390625Q354.04688 72.625 352.45312 72.625ZM352.3125 66.9375Q351.65625 66.9375 351.20312 67.421875Q350.76562 67.890625 350.67188 68.75L353.84375 68.75L353.84375 68.671875Q353.79688 67.84375 353.39062 67.390625Q353.0 66.9375 352.3125 66.9375ZM358.89062 67.125Q358.64062 67.09375 358.35938 67.09375Q357.28125 67.09375 356.90625 68.0L356.90625 72.5L355.82812 72.5L355.82812 66.15625L356.875 66.15625L356.89062 66.890625Q357.42188 66.046875 358.40625 66.046875Q358.71875 66.046875 358.89062 66.125L358.89062 67.125Z" fill-rule="nonzero"/><path stroke="#db4437" stroke-width="4.0" stroke-linecap="butt" d="M375.0 68.0L387.0 68.0" fill-rule="nonzero"/><path fill="#757575" d="M402.26562 69.796875Q402.10938 71.140625 401.26562 71.890625Q400.42188 72.625 399.03125 72.625Q397.51562 72.625 396.60938 71.546875Q395.70312 70.453125 395.70312 68.625L395.70312 67.8125Q395.70312 66.625 396.125 65.71875Q396.54688 64.8125 397.32812 64.328125Q398.10938 63.84375 399.125 63.84375Q400.48438 63.84375 401.29688 64.609375Q402.125 65.375 402.26562 66.703125L401.14062 66.703125Q400.98438 65.6875 400.5 65.234375Q400.01562 64.78125 399.125 64.78125Q398.04688 64.78125 397.4375 65.578125Q396.82812 66.375 396.82812 67.84375L396.82812 68.671875Q396.82812 70.0625 397.40625 70.890625Q397.98438 71.703125 399.03125 71.703125Q399.96875 71.703125 400.46875 71.28125Q400.96875 70.84375 401.14062 69.796875L402.26562 69.796875ZM403.53125 69.265625Q403.53125 68.34375 403.89062 67.59375Q404.26562 66.84375 404.92188 66.453125Q405.57812 66.046875 406.40625 66.046875Q407.70312 66.046875 408.5 66.9375Q409.3125 67.828125 409.3125 69.328125L409.3125 69.40625Q409.3125 70.328125 408.95312 71.0625Q408.59375 71.796875 407.9375 72.21875Q407.28125 72.625 406.42188 72.625Q405.14062 72.625 404.32812 71.734375Q403.53125 70.828125 403.53125 69.34375L403.53125 69.265625ZM404.625 69.40625Q404.625 70.453125 405.10938 71.09375Q405.60938 71.734375 406.42188 71.734375Q407.25 71.734375 407.73438 71.09375Q408.21875 70.4375 408.21875 69.265625Q408.21875 68.234375 407.71875 67.59375Q407.23438 66.9375 406.40625 66.9375Q405.60938 66.9375 405.10938 67.578125Q404.625 68.203125 404.625 69.40625ZM411.84375 66.15625L411.875 66.953125Q412.60938 66.046875 413.78125 66.046875Q415.79688 66.046875 415.8125 68.3125L415.8125 72.5L414.71875 72.5L414.71875 68.296875Q414.71875 67.625 414.40625 67.296875Q414.10938 66.96875 413.45312 66.96875Q412.92188 66.96875 412.51562 67.25Q412.125 67.53125 411.90625 67.984375L411.90625 72.5L410.82812 72.5L410.82812 66.15625L411.84375 66.15625ZM419.29688 64.625L419.29688 66.15625L420.46875 66.15625L420.46875 67.0L419.29688 67.0L419.29688 70.921875Q419.29688 71.3125 419.45312 71.5Q419.60938 71.6875 419.98438 71.6875Q420.17188 71.6875 420.5 71.625L420.5 72.5Q420.07812 72.625 419.67188 72.625Q418.95312 72.625 418.57812 72.1875Q418.20312 71.734375 418.20312 70.921875L418.20312 67.0L417.04688 67.0L417.04688 66.15625L418.20312 66.15625L418.20312 64.625L419.29688 64.625ZM424.89062 67.125Q424.64062 67.09375 424.35938 67.09375Q423.28125 67.09375 422.90625 68.0L422.90625 72.5L421.82812 72.5L421.82812 66.15625L422.875 66.15625L422.89062 66.890625Q423.42188 66.046875 424.40625 66.046875Q424.71875 66.046875 424.89062 66.125L424.89062 67.125ZM429.73438 72.5Q429.64062 72.3125 429.57812 71.828125Q428.82812 72.625 427.78125 72.625Q426.84375 72.625 426.23438 72.09375Q425.64062 71.5625 425.64062 70.734375Q425.64062 69.75 426.39062 69.203125Q427.14062 68.65625 428.51562 68.65625L429.5625 68.65625L429.5625 68.15625Q429.5625 67.59375 429.21875 67.265625Q428.89062 66.921875 428.21875 66.921875Q427.64062 66.921875 427.25 67.21875Q426.85938 67.5 426.85938 67.921875L425.76562 67.921875Q425.76562 67.4375 426.09375 67.0Q426.4375 66.5625 427.01562 66.3125Q427.59375 66.046875 428.28125 66.046875Q429.39062 66.046875 430.0 66.59375Q430.625 67.140625 430.65625 68.09375L430.65625 71.015625Q430.65625 71.890625 430.875 72.40625L430.875 72.5L429.73438 72.5ZM427.9375 71.671875Q428.45312 71.671875 428.90625 71.40625Q429.35938 71.140625 429.5625 70.71875L429.5625 69.421875L428.71875 69.421875Q426.71875 69.421875 426.71875 70.59375Q426.71875 71.09375 427.0625 71.390625Q427.40625 71.671875 427.9375 71.671875ZM434.0 72.5L432.92188 72.5L432.92188 66.15625L434.0 66.15625L434.0 72.5ZM432.82812 64.484375Q432.82812 64.21875 432.98438 64.03125Q433.15625 63.84375 433.46875 63.84375Q433.78125 63.84375 433.9375 64.03125Q434.10938 64.21875 434.10938 64.484375Q434.10938 64.734375 433.9375 64.921875Q433.78125 65.09375 433.46875 65.09375Q433.15625 65.09375 432.98438 64.921875Q432.82812 64.734375 432.82812 64.484375ZM437.0 72.5L435.92188 72.5L435.92188 63.5L437.0 63.5L437.0 72.5ZM444.07812 69.3125L441.21875 69.3125L441.21875 68.4375L444.07812 68.4375L444.07812 69.3125ZM451.125 69.046875L449.10938 69.046875L449.10938 72.5L447.98438 72.5L447.98438 63.96875L450.8125 63.96875Q452.25 63.96875 453.01562 64.625Q453.79688 65.28125 453.79688 66.53125Q453.79688 67.328125 453.35938 67.921875Q452.9375 68.515625 452.17188 68.8125L454.17188 72.421875L454.17188 72.5L452.96875 72.5L451.125 69.046875ZM449.10938 68.125L450.84375 68.125Q451.6875 68.125 452.17188 67.703125Q452.67188 67.265625 452.67188 66.53125Q452.67188 65.75 452.20312 65.328125Q451.73438 64.90625 450.84375 64.890625L449.10938 64.890625L449.10938 68.125ZM457.45312 72.625Q456.15625 72.625 455.34375 71.78125Q454.54688 70.921875 454.54688 69.5L454.54688 69.3125Q454.54688 68.359375 454.90625 67.625Q455.26562 66.875 455.90625 66.46875Q456.5625 66.046875 457.3125 66.046875Q458.54688 66.046875 459.23438 66.859375Q459.92188 67.671875 459.92188 69.1875L459.92188 69.640625L455.625 69.640625Q455.65625 70.578125 456.17188 71.15625Q456.70312 71.734375 457.51562 71.734375Q458.07812 71.734375 458.46875 71.5Q458.875 71.265625 459.1875 70.875L459.84375 71.390625Q459.04688 72.625 457.45312 72.625ZM457.3125 66.9375Q456.65625 66.9375 456.20312 67.421875Q455.76562 67.890625 455.67188 68.75L458.84375 68.75L458.84375 68.671875Q458.79688 67.84375 458.39062 67.390625Q458.0 66.9375 457.3125 66.9375ZM463.35938 71.734375Q463.9375 71.734375 464.375 71.390625Q464.8125 71.03125 464.85938 70.5L465.89062 70.5Q465.85938 71.046875 465.5 71.546875Q465.15625 72.03125 464.57812 72.328125Q464.01562 72.625 463.35938 72.625Q462.0625 72.625 461.29688 71.765625Q460.54688 70.890625 460.54688 69.390625L460.54688 69.203125Q460.54688 68.28125 460.875 67.5625Q461.21875 66.84375 461.84375 66.453125Q462.48438 66.046875 463.35938 66.046875Q464.42188 66.046875 465.125 66.6875Q465.84375 67.3125 465.89062 68.34375L464.85938 68.34375Q464.8125 67.71875 464.39062 67.328125Q463.96875 66.9375 463.35938 66.9375Q462.53125 66.9375 462.07812 67.53125Q461.625 68.125 461.625 69.25L461.625 69.453125Q461.625 70.546875 462.07812 71.140625Q462.53125 71.734375 463.35938 71.734375ZM469.45312 72.625Q468.15625 72.625 467.34375 71.78125Q466.54688 70.921875 466.54688 69.5L466.54688 69.3125Q466.54688 68.359375 466.90625 67.625Q467.26562 66.875 467.90625 66.46875Q468.5625 66.046875 469.3125 66.046875Q470.54688 66.046875 471.23438 66.859375Q471.92188 67.671875 471.92188 69.1875L471.92188 69.640625L467.625 69.640625Q467.65625 70.578125 468.17188 71.15625Q468.70312 71.734375 469.51562 71.734375Q470.07812 71.734375 470.46875 71.5Q470.875 71.265625 471.1875 70.875L471.84375 71.390625Q471.04688 72.625 469.45312 72.625ZM469.3125 66.9375Q468.65625 66.9375 468.20312 67.421875Q467.76562 67.890625 467.67188 68.75L470.84375 68.75L470.84375 68.671875Q470.79688 67.84375 470.39062 67.390625Q470.0 66.9375 469.3125 66.9375ZM474.0 72.5L472.92188 72.5L472.92188 66.15625L474.0 66.15625L474.0 72.5ZM472.82812 64.484375Q472.82812 64.21875 472.98438 64.03125Q473.15625 63.84375 473.46875 63.84375Q473.78125 63.84375 473.9375 64.03125Q474.10938 64.21875 474.10938 64.484375Q474.10938 64.734375 473.9375 64.921875Q473.78125 65.09375 473.46875 65.09375Q473.15625 65.09375 472.98438 64.921875Q472.82812 64.734375 472.82812 64.484375ZM477.90625 71.03125L479.48438 66.15625L480.59375 66.15625L478.3125 72.5L477.48438 72.5L475.1875 66.15625L476.29688 66.15625L477.90625 71.03125ZM484.45312 72.625Q483.15625 72.625 482.34375 71.78125Q481.54688 70.921875 481.54688 69.5L481.54688 69.3125Q481.54688 68.359375 481.90625 67.625Q482.26562 66.875 482.90625 66.46875Q483.5625 66.046875 484.3125 66.046875Q485.54688 66.046875 486.23438 66.859375Q486.92188 67.671875 486.92188 69.1875L486.92188 69.640625L482.625 69.640625Q482.65625 70.578125 483.17188 71.15625Q483.70312 71.734375 484.51562 71.734375Q485.07812 71.734375 485.46875 71.5Q485.875 71.265625 486.1875 70.875L486.84375 71.390625Q486.04688 72.625 484.45312 72.625ZM484.3125 66.9375Q483.65625 66.9375 483.20312 67.421875Q482.76562 67.890625 482.67188 68.75L485.84375 68.75L485.84375 68.671875Q485.79688 67.84375 485.39062 67.390625Q485.0 66.9375 484.3125 66.9375ZM490.89062 67.125Q490.64062 67.09375 490.35938 67.09375Q489.28125 67.09375 488.90625 68.0L488.90625 72.5L487.82812 72.5L487.82812 66.15625L488.875 66.15625L488.89062 66.890625Q489.42188 66.046875 490.40625 66.046875Q490.71875 66.046875 490.89062 66.125L490.89062 67.125Z" fill-rule="nonzero"/><path fill="#757575" d="M260.46875 28.228127L255.90625 28.228127L255.90625 40.9L254.04688 40.9L254.04688 28.228127L249.48438 28.228127L249.48438 26.681252L260.46875 26.681252L260.46875 28.228127ZM273.10938 36.384377Q272.84375 38.65 271.4375 39.884377Q270.04688 41.103127 267.71875 41.103127Q265.20312 41.103127 263.67188 39.290627Q262.15625 37.478127 262.15625 34.446877L262.15625 33.0875Q262.15625 31.103127 262.85938 29.603127Q263.57812 28.103127 264.875 27.290627Q266.17188 26.478127 267.89062 26.478127Q270.15625 26.478127 271.51562 27.743752Q272.89062 29.009377 273.10938 31.243752L271.21875 31.243752Q270.98438 29.556252 270.15625 28.790627Q269.34375 28.025002 267.89062 28.025002Q266.09375 28.025002 265.0625 29.353127Q264.04688 30.681252 264.04688 33.134377L264.04688 34.509377Q264.04688 36.821877 265.01562 38.196877Q265.98438 39.55625 267.71875 39.55625Q269.28125 39.55625 270.10938 38.853127Q270.95312 38.15 271.21875 36.384377L273.10938 36.384377ZM277.53125 35.3375L277.53125 40.9L275.65625 40.9L275.65625 26.681252L280.89062 26.681252Q283.23438 26.681252 284.54688 27.868752Q285.875 29.056252 285.875 31.025002Q285.875 33.103127 284.57812 34.228127Q283.28125 35.3375 280.875 35.3375L277.53125 35.3375ZM277.53125 33.80625L280.89062 33.80625Q282.40625 33.80625 283.20312 33.103127Q284.0 32.384377 284.0 31.040627Q284.0 29.775002 283.20312 29.025002Q282.40625 28.259377 281.0 28.228127L277.53125 28.228127L277.53125 33.80625ZM303.46875 28.228127L298.90625 28.228127L298.90625 40.9L297.04688 40.9L297.04688 28.228127L292.48438 28.228127L292.48438 26.681252L303.46875 26.681252L303.46875 28.228127ZM307.17188 31.618752Q308.375 30.134377 310.29688 30.134377Q313.65625 30.134377 313.67188 33.915627L313.67188 40.9L311.875 40.9L311.875 33.9Q311.85938 32.759377 311.34375 32.2125Q310.84375 31.665627 309.75 31.665627Q308.875 31.665627 308.20312 32.134377Q307.54688 32.603127 307.17188 33.36875L307.17188 40.9L305.375 40.9L305.375 25.900002L307.17188 25.900002L307.17188 31.618752ZM321.46875 31.946877Q321.0625 31.884377 320.59375 31.884377Q318.8125 31.884377 318.17188 33.4L318.17188 40.9L316.375 40.9L316.375 30.337502L318.125 30.337502L318.15625 31.556252Q319.04688 30.134377 320.67188 30.134377Q321.20312 30.134377 321.46875 30.275002L321.46875 31.946877ZM322.89062 35.525Q322.89062 33.9625 323.5 32.728127Q324.10938 31.478127 325.1875 30.806252Q326.28125 30.134377 327.6875 30.134377Q329.84375 30.134377 331.17188 31.634377Q332.51562 33.11875 332.51562 35.603127L332.51562 35.728127Q332.51562 37.275 331.92188 38.509377Q331.32812 39.728127 330.21875 40.415627Q329.125 41.103127 327.70312 41.103127Q325.5625 41.103127 324.21875 39.603127Q322.89062 38.103127 322.89062 35.65L322.89062 35.525ZM324.70312 35.728127Q324.70312 37.49375 325.51562 38.55625Q326.34375 39.61875 327.70312 39.61875Q329.07812 39.61875 329.89062 38.540627Q330.70312 37.4625 330.70312 35.525Q330.70312 33.775 329.875 32.696877Q329.04688 31.618752 327.6875 31.618752Q326.34375 31.618752 325.51562 32.68125Q324.70312 33.74375 324.70312 35.728127ZM340.89062 39.853127Q339.84375 41.103127 337.79688 41.103127Q336.10938 41.103127 335.21875 40.11875Q334.34375 39.134377 334.32812 37.2125L334.32812 30.337502L336.14062 30.337502L336.14062 37.165627Q336.14062 39.55625 338.09375 39.55625Q340.15625 39.55625 340.84375 38.025L340.84375 30.337502L342.65625 30.337502L342.65625 40.9L340.9375 40.9L340.89062 39.853127ZM344.9375 35.525Q344.9375 33.05625 346.07812 31.603127Q347.21875 30.134377 349.10938 30.134377Q351.04688 30.134377 352.125 31.509377L352.21875 30.337502L353.85938 30.337502L353.85938 40.65Q353.85938 42.696877 352.64062 43.86875Q351.4375 45.05625 349.375 45.05625Q348.23438 45.05625 347.14062 44.571877Q346.04688 44.0875 345.46875 43.228127L346.40625 42.15Q347.57812 43.5875 349.25 43.5875Q350.57812 43.5875 351.3125 42.8375Q352.04688 42.103127 352.04688 40.759377L352.04688 39.8375Q350.96875 41.103127 349.09375 41.103127Q347.23438 41.103127 346.07812 39.603127Q344.9375 38.103127 344.9375 35.525ZM346.75 35.728127Q346.75 37.525 347.48438 38.540627Q348.21875 39.55625 349.53125 39.55625Q351.25 39.55625 352.04688 38.009377L352.04688 33.18125Q351.21875 31.665627 349.5625 31.665627Q348.23438 31.665627 347.48438 32.696877Q346.75 33.728127 346.75 35.728127ZM358.17188 31.618752Q359.375 30.134377 361.29688 30.134377Q364.65625 30.134377 364.67188 33.915627L364.67188 40.9L362.875 40.9L362.875 33.9Q362.85938 32.759377 362.34375 32.2125Q361.84375 31.665627 360.75 31.665627Q359.875 31.665627 359.20312 32.134377Q358.54688 32.603127 358.17188 33.36875L358.17188 40.9L356.375 40.9L356.375 25.900002L358.17188 25.900002L358.17188 31.618752ZM376.29688 35.728127Q376.29688 38.15 375.1875 39.634377Q374.09375 41.103127 372.20312 41.103127Q370.28125 41.103127 369.17188 39.86875L369.17188 44.9625L367.375 44.9625L367.375 30.337502L369.01562 30.337502L369.10938 31.509377Q370.20312 30.134377 372.17188 30.134377Q374.07812 30.134377 375.1875 31.571877Q376.29688 33.009377 376.29688 35.571877L376.29688 35.728127ZM374.48438 35.525Q374.48438 33.74375 373.71875 32.7125Q372.96875 31.665627 371.64062 31.665627Q370.0 31.665627 369.17188 33.11875L369.17188 38.18125Q369.98438 39.61875 371.65625 39.61875Q372.95312 39.61875 373.71875 38.5875Q374.48438 37.55625 374.48438 35.525ZM384.89062 39.853127Q383.84375 41.103127 381.79688 41.103127Q380.10938 41.103127 379.21875 40.11875Q378.34375 39.134377 378.32812 37.2125L378.32812 30.337502L380.14062 30.337502L380.14062 37.165627Q380.14062 39.55625 382.09375 39.55625Q384.15625 39.55625 384.84375 38.025L384.84375 30.337502L386.65625 30.337502L386.65625 40.9L384.9375 40.9L384.89062 39.853127ZM391.8125 27.775002L391.8125 30.337502L393.79688 30.337502L393.79688 31.728127L391.8125 31.728127L391.8125 38.275Q391.8125 38.915627 392.07812 39.24375Q392.34375 39.55625 392.98438 39.55625Q393.29688 39.55625 393.84375 39.43125L393.84375 40.9Q393.125 41.103127 392.45312 41.103127Q391.25 41.103127 390.625 40.36875Q390.01562 39.634377 390.01562 38.275L390.01562 31.728127L388.09375 31.728127L388.09375 30.337502L390.01562 30.337502L390.01562 27.775002L391.8125 27.775002ZM405.10938 26.134377L403.25 26.134377L403.25 42.4625L405.10938 42.4625L405.10938 43.946877L401.42188 43.946877L401.42188 24.650002L405.10938 24.650002L405.10938 26.134377ZM409.07812 26.681252L413.71875 38.275L418.375 26.681252L420.79688 26.681252L420.79688 40.9L418.92188 40.9L418.92188 35.36875L419.10938 29.384377L414.4375 40.9L413.0 40.9L408.34375 29.415627L408.53125 35.36875L408.53125 40.9L406.65625 40.9L406.65625 26.681252L409.07812 26.681252ZM432.3125 35.728127Q432.3125 38.15 431.20312 39.634377Q430.09375 41.103127 428.21875 41.103127Q426.20312 41.103127 425.10938 39.68125L425.03125 40.9L423.375 40.9L423.375 25.900002L425.17188 25.900002L425.17188 31.493752Q426.26562 30.134377 428.1875 30.134377Q430.10938 30.134377 431.20312 31.587502Q432.3125 33.040627 432.3125 35.571877L432.3125 35.728127ZM430.5 35.525Q430.5 33.68125 429.78125 32.68125Q429.07812 31.665627 427.75 31.665627Q425.95312 31.665627 425.17188 33.3375L425.17188 37.9Q426.0 39.55625 427.76562 39.55625Q429.0625 39.55625 429.78125 38.55625Q430.5 37.55625 430.5 35.525ZM443.29688 35.728127Q443.29688 38.15 442.1875 39.634377Q441.09375 41.103127 439.20312 41.103127Q437.28125 41.103127 436.17188 39.86875L436.17188 44.9625L434.375 44.9625L434.375 30.337502L436.01562 30.337502L436.10938 31.509377Q437.20312 30.134377 439.17188 30.134377Q441.07812 30.134377 442.1875 31.571877Q443.29688 33.009377 443.29688 35.571877L443.29688 35.728127ZM441.48438 35.525Q441.48438 33.74375 440.71875 32.7125Q439.96875 31.665627 438.64062 31.665627Q437.0 31.665627 436.17188 33.11875L436.17188 38.18125Q436.98438 39.61875 438.65625 39.61875Q439.95312 39.61875 440.71875 38.5875Q441.48438 37.55625 441.48438 35.525ZM451.51562 38.103127Q451.51562 37.36875 450.96875 36.9625Q450.42188 36.55625 449.04688 36.259377Q447.67188 35.9625 446.85938 35.55625Q446.0625 35.15 445.67188 34.5875Q445.29688 34.009377 445.29688 33.228127Q445.29688 31.931252 446.39062 31.040627Q447.48438 30.134377 449.20312 30.134377Q451.0 30.134377 452.10938 31.071877Q453.23438 31.993752 453.23438 33.43125L451.40625 33.43125Q451.40625 32.696877 450.78125 32.165627Q450.15625 31.618752 449.20312 31.618752Q448.20312 31.618752 447.64062 32.05625Q447.09375 32.478127 447.09375 33.18125Q447.09375 33.821877 447.60938 34.165627Q448.125 34.49375 449.48438 34.80625Q450.84375 35.103127 451.67188 35.525Q452.51562 35.93125 452.92188 36.525Q453.32812 37.11875 453.32812 37.9625Q453.32812 39.384377 452.1875 40.24375Q451.0625 41.103127 449.25 41.103127Q447.98438 41.103127 447.0 40.65Q446.03125 40.196877 445.46875 39.4Q444.92188 38.5875 444.92188 37.65L446.73438 37.65Q446.78125 38.55625 447.45312 39.0875Q448.14062 39.61875 449.25 39.61875Q450.28125 39.61875 450.89062 39.2125Q451.51562 38.790627 451.51562 38.103127ZM454.09375 24.650002L457.78125 24.650002L457.78125 43.946877L454.09375 43.946877L454.09375 42.4625L455.96875 42.4625L455.96875 26.134377L454.09375 26.134377L454.09375 24.650002Z" fill-rule="nonzero"/></svg>