<svg version="1.1" viewBox="0.0 0.0 708.0 436.0" fill="none" stroke="none" stroke-linecap="square" stroke-miterlimit="10" width="708" height="436" xmlns:xlink="http://www.w3.org/1999/xlink" xmlns="http://www.w3.org/2000/svg"><path fill="#ffffff" d="M0 0L708.0 0L708.0 436.0L0 436.0L0 0Z" fill-rule="nonzero"/><path stroke="#333333" stroke-width="1.0" stroke-linecap="butt" d="M55.5 360.5L686.5 360.5" fill-rule="nonzero"/><path stroke="#cccccc" stroke-width="1.0" stroke-linecap="butt" d="M55.5 294.5L686.5 294.5" fill-rule="nonzero"/><path stroke="#cccccc" stroke-width="1.0" stroke-linecap="butt" d="M55.5 228.5L686.5 228.5" fill-rule="nonzero"/><path stroke="#cccccc" stroke-width="1.0" stroke-linecap="butt" d="M55.5 163.5L686.5 163.5" fill-rule="nonzero"/><path stroke="#cccccc" stroke-width="1.0" stroke-linecap="butt" d="M55.5 97.5L686.5 97.5" fill-rule="nonzero"/><clipPath id="id_0"><path d="M55.8 97.36667L686.2 97.36667L686.2 360.2L55.8 360.2L55.8 97.36667Z" clip-rule="nonzero"/></clipPath><path stroke="#4285f4" stroke-width="2.0" stroke-linecap="butt" clip-path="url(#id_0)" d="M80.04615 345.39288L128.53847 330.58444L177.03076 300.9543L225.52307 271.34363L274.01538 241.80634L322.5077 212.13477L371.0 182.51282L419.4923 152.89786L467.98462 136.91733L516.4769 124.31521L564.96924 131.55652L613.46155 130.71756L661.95386 120.53469" fill-rule="nonzero"/><path stroke="#db4437" stroke-width="2.0" stroke-linecap="butt" clip-path="url(#id_0)" d="M80.04615 343.34128L128.53847 328.4824L177.03076 301.17456L225.52307 279.95428L274.01538 265.0153L322.5077 248.07607L371.0 239.34271L419.4923 219.65866L467.98462 215.15895L516.4769 214.26277L564.96924 210.88231L613.46155 205.24512L661.95386 211.91779" fill-rule="nonzero"/><path fill="#000000" fill-opacity="0.0" clip-path="url(#id_0)" d="M83.04615 345.39288C83.04615 347.04974 81.70301 348.39288 80.04615 348.39288C78.3893 348.39288 77.04615 347.04974 77.04615 345.39288C77.04615 343.73602 78.3893 342.39288 80.04615 342.39288C81.70301 342.39288 83.04615 343.73602 83.04615 345.39288Z" fill-rule="nonzero"/><path fill="#000000" fill-opacity="0.0" clip-path="url(#id_0)" d="M131.53847 330.58444C131.53847 332.2413 130.19531 333.58444 128.53847 333.58444C126.88161 333.58444 125.53846 332.2413 125.53846 330.58444C125.53846 328.92758 126.88161 327.58444 128.53847 327.58444C130.19531 327.58444 131.53847 328.92758 131.53847 330.58444Z" fill-rule="nonzero"/><path fill="#000000" fill-opacity="0.0" clip-path="url(#id_0)" d="M180.03076 300.9543C180.03076 302.61118 178.68762 303.9543 177.03076 303.9543C175.37392 303.9543 174.03076 302.61118 174.03076 300.9543C174.03076 299.29745 175.37392 297.9543 177.03076 297.9543C178.68762 297.9543 180.03076 299.29745 180.03076 300.9543Z" fill-rule="nonzero"/><path fill="#000000" fill-opacity="0.0" clip-path="url(#id_0)" d="M228.52307 271.34363C228.52307 273.0005 227.17993 274.34363 225.52307 274.34363C223.86623 274.34363 222.52307 273.0005 222.52307 271.34363C222.52307 269.68677 223.86623 268.34363 225.52307 268.34363C227.17993 268.34363 228.52307 269.68677 228.52307 271.34363Z" fill-rule="nonzero"/><path fill="#000000" fill-opacity="0.0" clip-path="url(#id_0)" d="M277.01538 241.80634C277.01538 243.46318 275.67224 244.80634 274.01538 244.80634C272.35852 244.80634 271.01538 243.46318 271.01538 241.80634C271.01538 240.14948 272.35852 238.80634 274.01538 238.80634C275.67224 238.80634 277.01538 240.14948 277.01538 241.80634Z" fill-rule="nonzero"/><path fill="#000000" fill-opacity="0.0" clip-path="url(#id_0)" d="M325.5077 212.13477C325.5077 213.79161 324.16455 215.13477 322.5077 215.13477C320.85083 215.13477 319.5077 213.79161 319.5077 212.13477C319.5077 210.4779 320.85083 209.13477 322.5077 209.13477C324.16455 209.13477 325.5077 210.4779 325.5077 212.13477Z" fill-rule="nonzero"/><path fill="#000000" fill-opacity="0.0" clip-path="url(#id_0)" d="M374.0 182.51282C374.0 184.16966 372.65686 185.51282 371.0 185.51282C369.34314 185.51282 368.0 184.16966 368.0 182.51282C368.0 180.85596 369.34314 179.51282 371.0 179.51282C372.65686 179.51282 374.0 180.85596 374.0 182.51282Z" fill-rule="nonzero"/><path fill="#000000" fill-opacity="0.0" clip-path="url(#id_0)" d="M422.4923 152.89786C422.4923 154.55472 421.14917 155.89786 419.4923 155.89786C417.83545 155.89786 416.4923 154.55472 416.4923 152.89786C416.4923 151.241 417.83545 149.89786 419.4923 149.89786C421.14917 149.89786 422.4923 151.241 422.4923 152.89786Z" fill-rule="nonzero"/><path fill="#000000" fill-opacity="0.0" clip-path="url(#id_0)" d="M470.98462 136.91733C470.98462 138.57419 469.64148 139.91733 467.98462 139.91733C466.32776 139.91733 464.98462 138.57419 464.98462 136.91733C464.98462 135.26047 466.32776 133.91733 467.98462 133.91733C469.64148 133.91733 470.98462 135.26047 470.98462 136.91733Z" fill-rule="nonzero"/><path fill="#000000" fill-opacity="0.0" clip-path="url(#id_0)" d="M519.4769 124.31521C519.4769 125.97206 518.1338 127.31521 516.4769 127.31521C514.82007 127.31521 513.4769 125.97206 513.4769 124.31521C513.4769 122.65835 514.82007 121.31521 516.4769 121.31521C518.1338 121.31521 519.4769 122.65835 519.4769 124.31521Z" fill-rule="nonzero"/><path fill="#000000" fill-opacity="0.0" clip-path="url(#id_0)" d="M567.96924 131.55652C567.96924 133.21338 566.6261 134.55652 564.96924 134.55652C563.3124 134.55652 561.96924 133.21338 561.96924 131.55652C561.96924 129.89967 563.3124 128.55652 564.96924 128.55652C566.6261 128.55652 567.96924 129.89967 567.96924 131.55652Z" fill-rule="nonzero"/><path fill="#000000" fill-opacity="0.0" clip-path="url(#id_0)" d="M616.46155 130.71756C616.46155 132.37442 615.1184 133.71756 613.46155 133.71756C611.8047 133.71756 610.46155 132.37442 610.46155 130.71756C610.46155 129.06071 611.8047 127.71756 613.46155 127.71756C615.1184 127.71756 616.46155 129.06071 616.46155 130.71756Z" fill-rule="nonzero"/><path fill="#000000" fill-opacity="0.0" clip-path="url(#id_0)" d="M664.95386 120.53469C664.95386 122.19154 663.6107 123.53469 661.95386 123.53469C660.297 123.53469 658.95386 122.19154 658.95386 120.53469C658.95386 118.87784 660.297 117.53469 661.95386 117.53469C663.6107 117.53469 664.95386 118.87784 664.95386 120.53469Z" fill-rule="nonzero"/><path fill="#000000" fill-opacity="0.0" clip-path="url(#id_0)" d="M83.04615 343.34128C83.04615 344.99814 81.70301 346.34128 80.04615 346.34128C78.3893 346.34128 77.04615 344.99814 77.04615 343.34128C77.04615 341.68445 78.3893 340.34128 80.04615 340.34128C81.70301 340.34128 83.04615 341.68445 83.04615 343.34128Z" fill-rule="nonzero"/><path fill="#000000" fill-opacity="0.0" clip-path="url(#id_0)" d="M131.53847 328.4824C131.53847 330.13922 130.19531 331.4824 128.53847 331.4824C126.88161 331.4824 125.53846 330.13922 125.53846 328.4824C125.53846 326.82553 126.88161 325.4824 128.53847 325.4824C130.19531 325.4824 131.53847 326.82553 131.53847 328.4824Z" fill-rule="nonzero"/><path fill="#000000" fill-opacity="0.0" clip-path="url(#id_0)" d="M180.03076 301.17456C180.03076 302.8314 178.68762 304.17456 177.03076 304.17456C175.37392 304.17456 174.03076 302.8314 174.03076 301.17456C174.03076 299.5177 175.37392 298.17456 177.03076 298.17456C178.68762 298.17456 180.03076 299.5177 180.03076 301.17456Z" fill-rule="nonzero"/><path fill="#000000" fill-opacity="0.0" clip-path="url(#id_0)" d="M228.52307 279.95428C228.52307 281.61115 227.17993 282.95428 225.52307 282.95428C223.86623 282.95428 222.52307 281.61115 222.52307 279.95428C222.52307 278.29742 223.86623 276.95428 225.52307 276.95428C227.17993 276.95428 228.52307 278.29742 228.52307 279.95428Z" fill-rule="nonzero"/><path fill="#000000" fill-opacity="0.0" clip-path="url(#id_0)" d="M277.01538 265.0153C277.01538 266.67215 275.67224 268.0153 274.01538 268.0153C272.35852 268.0153 271.01538 266.67215 271.01538 265.0153C271.01538 263.35846 272.35852 262.0153 274.01538 262.0153C275.67224 262.0153 277.01538 263.35846 277.01538 265.0153Z" fill-rule="nonzero"/><path fill="#000000" fill-opacity="0.0" clip-path="url(#id_0)" d="M325.5077 248.07607C325.5077 249.73291 324.16455 251.07607 322.5077 251.07607C320.85083 251.07607 319.5077 249.73291 319.5077 248.07607C319.5077 246.4192 320.85083 245.07607 322.5077 245.07607C324.16455 245.07607 325.5077 246.4192 325.5077 248.07607Z" fill-rule="nonzero"/><path fill="#000000" fill-opacity="0.0" clip-path="url(#id_0)" d="M374.0 239.34271C374.0 240.99957 372.65686 242.34271 371.0 242.34271C369.34314 242.34271 368.0 240.99957 368.0 239.34271C368.0 237.68587 369.34314 236.34271 371.0 236.34271C372.65686 236.34271 374.0 237.68587 374.0 239.34271Z" fill-rule="nonzero"/><path fill="#000000" fill-opacity="0.0" clip-path="url(#id_0)" d="M422.4923 219.65866C422.4923 221.3155 421.14917 222.65866 419.4923 222.65866C417.83545 222.65866 416.4923 221.3155 416.4923 219.65866C416.4923 218.0018 417.83545 216.65866 419.4923 216.65866C421.14917 216.65866 422.4923 218.0018 422.4923 219.65866Z" fill-rule="nonzero"/><path fill="#000000" fill-opacity="0.0" clip-path="url(#id_0)" d="M470.98462 215.15895C470.98462 216.8158 469.64148 218.15895 467.98462 218.15895C466.32776 218.15895 464.98462 216.8158 464.98462 215.15895C464.98462 213.50209 466.32776 212.15895 467.98462 212.15895C469.64148 212.15895 470.98462 213.50209 470.98462 215.15895Z" fill-rule="nonzero"/><path fill="#000000" fill-opacity="0.0" clip-path="url(#id_0)" d="M519.4769 214.26277C519.4769 215.91962 518.1338 217.26277 516.4769 217.26277C514.82007 217.26277 513.4769 215.91962 513.4769 214.26277C513.4769 212.60591 514.82007 211.26277 516.4769 211.26277C518.1338 211.26277 519.4769 212.60591 519.4769 214.26277Z" fill-rule="nonzero"/><path fill="#000000" fill-opacity="0.0" clip-path="url(#id_0)" d="M567.96924 210.88231C567.96924 212.53915 566.6261 213.88231 564.96924 213.88231C563.3124 213.88231 561.96924 212.53915 561.96924 210.88231C561.96924 209.22545 563.3124 207.88231 564.96924 207.88231C566.6261 207.88231 567.96924 209.22545 567.96924 210.88231Z" fill-rule="nonzero"/><path fill="#000000" fill-opacity="0.0" clip-path="url(#id_0)" d="M616.46155 205.24512C616.46155 206.90196 615.1184 208.24512 613.46155 208.24512C611.8047 208.24512 610.46155 206.90196 610.46155 205.24512C610.46155 203.58826 611.8047 202.24512 613.46155 202.24512C615.1184 202.24512 616.46155 203.58826 616.46155 205.24512Z" fill-rule="nonzero"/><path fill="#000000" fill-opacity="0.0" clip-path="url(#id_0)" d="M664.95386 211.91779C664.95386 213.57465 663.6107 214.91779 661.95386 214.91779C660.297 214.91779 658.95386 213.57465 658.95386 211.91779C658.95386 210.26094 660.297 208.91779 661.95386 208.91779C663.6107 208.91779 664.95386 210.26094 664.95386 211.91779Z" fill-rule="nonzero"/><path fill="#424242" d="M355.89062 403.59064L353.14062 403.59064L353.14062 411.2L352.03125 411.2L352.03125 403.59064L349.28125 403.59064L349.28125 402.66876L355.89062 402.66876L355.89062 403.59064ZM357.90625 405.6219Q358.625 404.7469 359.78125 404.7469Q361.79688 404.7469 361.8125 407.0125L361.8125 411.2L360.71875 411.2L360.71875 406.9969Q360.71875 406.325 360.40625 405.9969Q360.10938 405.66876 359.45312 405.66876Q358.92188 405.66876 358.51562 405.95Q358.125 406.23126 357.90625 406.6844L357.90625 411.2L356.82812 411.2L356.82812 402.2L357.90625 402.2L357.90625 405.6219ZM366.89062 405.825Q366.64062 405.79376 366.35938 405.79376Q365.28125 405.79376 364.90625 406.7L364.90625 411.2L363.82812 411.2L363.82812 404.85626L364.875 404.85626L364.89062 405.59064Q365.42188 404.7469 366.40625 404.7469Q366.71875 404.7469 366.89062 404.825L366.89062 405.825ZM370.45312 411.325Q369.15625 411.325 368.34375 410.48126Q367.54688 409.6219 367.54688 408.2L367.54688 408.0125Q367.54688 407.0594 367.90625 406.325Q368.26562 405.575 368.90625 405.16876Q369.5625 404.7469 370.3125 404.7469Q371.54688 404.7469 372.23438 405.5594Q372.92188 406.3719 372.92188 407.8875L372.92188 408.34064L368.625 408.34064Q368.65625 409.27814 369.17188 409.85626Q369.70312 410.4344 370.51562 410.4344Q371.07812 410.4344 371.46875 410.2Q371.875 409.96564 372.1875 409.575L372.84375 410.09064Q372.04688 411.325 370.45312 411.325ZM370.3125 405.6375Q369.65625 405.6375 369.20312 406.1219Q368.76562 406.59064 368.67188 407.45L371.84375 407.45L371.84375 407.3719Q371.79688 406.54376 371.39062 406.09064Q371.0 405.6375 370.3125 405.6375ZM377.73438 411.2Q377.64062 411.0125 377.57812 410.52814Q376.82812 411.325 375.78125 411.325Q374.84375 411.325 374.23438 410.79376Q373.64062 410.2625 373.64062 409.4344Q373.64062 408.45 374.39062 407.90314Q375.14062 407.35626 376.51562 407.35626L377.5625 407.35626L377.5625 406.85626Q377.5625 406.29376 377.21875 405.96564Q376.89062 405.6219 376.21875 405.6219Q375.64062 405.6219 375.25 405.91876Q374.85938 406.2 374.85938 406.6219L373.76562 406.6219Q373.76562 406.1375 374.09375 405.7Q374.4375 405.2625 375.01562 405.0125Q375.59375 404.7469 376.28125 404.7469Q377.39062 404.7469 378.0 405.29376Q378.625 405.84064 378.65625 406.79376L378.65625 409.71564Q378.65625 410.59064 378.875 411.10626L378.875 411.2L377.73438 411.2ZM375.9375 410.3719Q376.45312 410.3719 376.90625 410.10626Q377.35938 409.84064 377.5625 409.41876L377.5625 408.1219L376.71875 408.1219Q374.71875 408.1219 374.71875 409.29376Q374.71875 409.79376 375.0625 410.09064Q375.40625 410.3719 375.9375 410.3719ZM380.5625 407.98126Q380.5625 406.5125 381.25 405.6375Q381.9375 404.7469 383.0625 404.7469Q384.17188 404.7469 384.82812 405.4969L384.82812 402.2L385.90625 402.2L385.90625 411.2L384.90625 411.2L384.85938 410.5125Q384.20312 411.325 383.04688 411.325Q381.95312 411.325 381.25 410.41876Q380.5625 409.5125 380.5625 408.0594L380.5625 407.98126ZM381.64062 408.10626Q381.64062 409.1844 382.07812 409.79376Q382.53125 410.40314 383.3125 410.40314Q384.34375 410.40314 384.82812 409.46564L384.82812 406.5594Q384.34375 405.66876 383.32812 405.66876Q382.53125 405.66876 382.07812 406.27814Q381.64062 406.8875 381.64062 408.10626ZM391.51562 409.5125Q391.51562 409.075 391.17188 408.84064Q390.84375 408.59064 390.01562 408.41876Q389.20312 408.2469 388.71875 407.9969Q388.23438 407.7469 388.0 407.41876Q387.78125 407.075 387.78125 406.60626Q387.78125 405.825 388.4375 405.29376Q389.09375 404.7469 390.125 404.7469Q391.20312 404.7469 391.85938 405.3094Q392.53125 405.85626 392.53125 406.71564L391.45312 406.71564Q391.45312 406.27814 391.0625 405.96564Q390.6875 405.6375 390.125 405.6375Q389.53125 405.6375 389.1875 405.90314Q388.85938 406.15314 388.85938 406.5594Q388.85938 406.95 389.17188 407.15314Q389.48438 407.35626 390.29688 407.54376Q391.10938 407.71564 391.60938 407.96564Q392.10938 408.21564 392.34375 408.575Q392.59375 408.9344 392.59375 409.4344Q392.59375 410.29376 391.90625 410.8094Q391.23438 411.325 390.15625 411.325Q389.39062 411.325 388.79688 411.0594Q388.21875 410.77814 387.89062 410.29376Q387.5625 409.8094 387.5625 409.2469L388.64062 409.2469Q388.67188 409.79376 389.07812 410.1219Q389.48438 410.4344 390.15625 410.4344Q390.76562 410.4344 391.14062 410.1844Q391.51562 409.9344 391.51562 409.5125Z" fill-rule="nonzero"/><path fill="#757575" d="M48.8625 361.0594Q48.8625 362.96564 48.20625 363.90314Q47.565624 364.825 46.175 364.825Q44.815624 364.825 44.159374 363.91876Q43.503124 363.0125 43.471874 361.2L43.471874 359.7625Q43.471874 357.8719 44.1125 356.96564Q44.76875 356.04376 46.159374 356.04376Q47.534374 356.04376 48.190624 356.9344Q48.846874 357.8094 48.8625 359.65314L48.8625 361.0594ZM47.76875 359.575Q47.76875 358.2 47.378124 357.575Q47.003124 356.9344 46.159374 356.9344Q45.33125 356.9344 44.940624 357.575Q44.565624 358.2 44.565624 359.4969L44.565624 361.23126Q44.565624 362.60626 44.95625 363.27814Q45.3625 363.9344 46.175 363.9344Q46.971874 363.9344 47.3625 363.3094Q47.753124 362.6844 47.76875 361.35626L47.76875 359.575Z" fill-rule="nonzero"/><path fill="#757575" d="M26.065624 298.99167L24.9875 298.99167L24.9875 291.77292L22.8 292.5698L22.8 291.58542L25.909374 290.41354L26.065624 290.41354L26.065624 298.99167ZM34.8625 295.35104Q34.8625 297.2573 34.20625 298.1948Q33.565624 299.11667 32.175 299.11667Q30.815624 299.11667 30.159374 298.21042Q29.503124 297.30417 29.471874 295.49167L29.471874 294.05417Q29.471874 292.16354 30.1125 291.2573Q30.76875 290.33542 32.159374 290.33542Q33.534374 290.33542 34.190624 291.22604Q34.846874 292.10104 34.8625 293.9448L34.8625 295.35104ZM33.76875 293.86667Q33.76875 292.49167 33.378124 291.86667Q33.003124 291.22604 32.159374 291.22604Q31.33125 291.22604 30.940624 291.86667Q30.565624 292.49167 30.565624 293.78854L30.565624 295.52292Q30.565624 296.89792 30.95625 297.5698Q31.3625 298.22604 32.175 298.22604Q32.971874 298.22604 33.3625 297.60104Q33.753124 296.97604 33.76875 295.64792L33.76875 293.86667ZM41.8625 295.35104Q41.8625 297.2573 41.20625 298.1948Q40.565624 299.11667 39.175 299.11667Q37.815624 299.11667 37.159374 298.21042Q36.503124 297.30417 36.471874 295.49167L36.471874 294.05417Q36.471874 292.16354 37.1125 291.2573Q37.76875 290.33542 39.159374 290.33542Q40.534374 290.33542 41.190624 291.22604Q41.846874 292.10104 41.8625 293.9448L41.8625 295.35104ZM40.76875 293.86667Q40.76875 292.49167 40.378124 291.86667Q40.003124 291.22604 39.159374 291.22604Q38.33125 291.22604 37.940624 291.86667Q37.565624 292.49167 37.565624 293.78854L37.565624 295.52292Q37.565624 296.89792 37.95625 297.5698Q38.3625 298.22604 39.175 298.22604Q39.971874 298.22604 40.3625 297.60104Q40.753124 296.97604 40.76875 295.64792L40.76875 293.86667ZM48.8625 295.35104Q48.8625 297.2573 48.20625 298.1948Q47.565624 299.11667 46.175 299.11667Q44.815624 299.11667 44.159374 298.21042Q43.503124 297.30417 43.471874 295.49167L43.471874 294.05417Q43.471874 292.16354 44.1125 291.2573Q44.76875 290.33542 46.159374 290.33542Q47.534374 290.33542 48.190624 291.22604Q48.846874 292.10104 48.8625 293.9448L48.8625 295.35104ZM47.76875 293.86667Q47.76875 292.49167 47.378124 291.86667Q47.003124 291.22604 46.159374 291.22604Q45.33125 291.22604 44.940624 291.86667Q44.565624 292.49167 44.565624 293.78854L44.565624 295.52292Q44.565624 296.89792 44.95625 297.5698Q45.3625 298.22604 46.175 298.22604Q46.971874 298.22604 47.3625 297.60104Q47.753124 296.97604 47.76875 295.64792L47.76875 293.86667Z" fill-rule="nonzero"/><path fill="#757575" d="M28.096874 233.28334L22.503124 233.28334L22.503124 232.50209L25.45625 229.22084Q26.1125 228.47084 26.3625 228.01772Q26.6125 227.54897 26.6125 227.04897Q26.6125 226.37709 26.20625 225.95522Q25.815624 225.51772 25.128124 225.51772Q24.33125 225.51772 23.878124 225.98647Q23.425 226.43959 23.425 227.26772L22.346874 227.26772Q22.346874 226.08022 23.096874 225.36147Q23.8625 224.62709 25.128124 224.62709Q26.33125 224.62709 27.01875 225.25209Q27.70625 225.87709 27.70625 226.92397Q27.70625 228.17397 26.096874 229.92397L23.815624 232.39272L28.096874 232.39272L28.096874 233.28334ZM34.8625 229.64272Q34.8625 231.54897 34.20625 232.48647Q33.565624 233.40834 32.175 233.40834Q30.815624 233.40834 30.159374 232.50209Q29.503124 231.59584 29.471874 229.78334L29.471874 228.34584Q29.471874 226.45522 30.1125 225.54897Q30.76875 224.62709 32.159374 224.62709Q33.534374 224.62709 34.190624 225.51772Q34.846874 226.39272 34.8625 228.23647L34.8625 229.64272ZM33.76875 228.15834Q33.76875 226.78334 33.378124 226.15834Q33.003124 225.51772 32.159374 225.51772Q31.33125 225.51772 30.940624 226.15834Q30.565624 226.78334 30.565624 228.08022L30.565624 229.81459Q30.565624 231.18959 30.95625 231.86147Q31.3625 232.51772 32.175 232.51772Q32.971874 232.51772 33.3625 231.89272Q33.753124 231.26772 33.76875 229.93959L33.76875 228.15834ZM41.8625 229.64272Q41.8625 231.54897 41.20625 232.48647Q40.565624 233.40834 39.175 233.40834Q37.815624 233.40834 37.159374 232.50209Q36.503124 231.59584 36.471874 229.78334L36.471874 228.34584Q36.471874 226.45522 37.1125 225.54897Q37.76875 224.62709 39.159374 224.62709Q40.534374 224.62709 41.190624 225.51772Q41.846874 226.39272 41.8625 228.23647L41.8625 229.64272ZM40.76875 228.15834Q40.76875 226.78334 40.378124 226.15834Q40.003124 225.51772 39.159374 225.51772Q38.33125 225.51772 37.940624 226.15834Q37.565624 226.78334 37.565624 228.08022L37.565624 229.81459Q37.565624 231.18959 37.95625 231.86147Q38.3625 232.51772 39.175 232.51772Q39.971874 232.51772 40.3625 231.89272Q40.753124 231.26772 40.76875 229.93959L40.76875 228.15834ZM48.8625 229.64272Q48.8625 231.54897 48.20625 232.48647Q47.565624 233.40834 46.175 233.40834Q44.815624 233.40834 44.159374 232.50209Q43.503124 231.59584 43.471874 229.78334L43.471874 228.34584Q43.471874 226.45522 44.1125 225.54897Q44.76875 224.62709 46.159374 224.62709Q47.534374 224.62709 48.190624 225.51772Q48.846874 226.39272 48.8625 228.23647L48.8625 229.64272ZM47.76875 228.15834Q47.76875 226.78334 47.378124 226.15834Q47.003124 225.51772 46.159374 225.51772Q45.33125 225.51772 44.940624 226.15834Q44.565624 226.78334 44.565624 228.08022L44.565624 229.81459Q44.565624 231.18959 44.95625 231.86147Q45.3625 232.51772 46.175 232.51772Q46.971874 232.51772 47.3625 231.89272Q47.753124 231.26772 47.76875 229.93959L47.76875 228.15834Z" fill-rule="nonzero"/><path fill="#757575" d="M24.08125 162.77812L24.89375 162.77812Q25.675 162.7625 26.1125 162.37187Q26.55 161.98125 26.55 161.30937Q26.55 159.80937 25.05 159.80937Q24.346874 159.80937 23.925 160.21562Q23.51875 160.62187 23.51875 161.27812L22.425 161.27812Q22.425 160.2625 23.159374 159.59062Q23.909374 158.91875 25.05 158.91875Q26.253124 158.91875 26.940624 159.55937Q27.628124 160.2 27.628124 161.34062Q27.628124 161.90312 27.26875 162.41875Q26.909374 162.93437 26.284374 163.2Q26.9875 163.41875 27.3625 163.93437Q27.753124 164.45 27.753124 165.2Q27.753124 166.34062 27.003124 167.02812Q26.253124 167.7 25.05 167.7Q23.8625 167.7 23.096874 167.04375Q22.346874 166.3875 22.346874 165.325L23.440624 165.325Q23.440624 165.99687 23.878124 166.40312Q24.315624 166.80937 25.065624 166.80937Q25.846874 166.80937 26.253124 166.40312Q26.675 165.98125 26.675 165.21562Q26.675 164.48125 26.221874 164.09062Q25.76875 163.68437 24.89375 163.66875L24.08125 163.66875L24.08125 162.77812ZM34.8625 163.93437Q34.8625 165.84062 34.20625 166.77812Q33.565624 167.7 32.175 167.7Q30.815624 167.7 30.159374 166.79375Q29.503124 165.8875 29.471874 164.075L29.471874 162.6375Q29.471874 160.74687 30.1125 159.84062Q30.76875 158.91875 32.159374 158.91875Q33.534374 158.91875 34.190624 159.80937Q34.846874 160.68437 34.8625 162.52812L34.8625 163.93437ZM33.76875 162.45Q33.76875 161.075 33.378124 160.45Q33.003124 159.80937 32.159374 159.80937Q31.33125 159.80937 30.940624 160.45Q30.565624 161.075 30.565624 162.37187L30.565624 164.10625Q30.565624 165.48125 30.95625 166.15312Q31.3625 166.80937 32.175 166.80937Q32.971874 166.80937 33.3625 166.18437Q33.753124 165.55937 33.76875 164.23125L33.76875 162.45ZM41.8625 163.93437Q41.8625 165.84062 41.20625 166.77812Q40.565624 167.7 39.175 167.7Q37.815624 167.7 37.159374 166.79375Q36.503124 165.8875 36.471874 164.075L36.471874 162.6375Q36.471874 160.74687 37.1125 159.84062Q37.76875 158.91875 39.159374 158.91875Q40.534374 158.91875 41.190624 159.80937Q41.846874 160.68437 41.8625 162.52812L41.8625 163.93437ZM40.76875 162.45Q40.76875 161.075 40.378124 160.45Q40.003124 159.80937 39.159374 159.80937Q38.33125 159.80937 37.940624 160.45Q37.565624 161.075 37.565624 162.37187L37.565624 164.10625Q37.565624 165.48125 37.95625 166.15312Q38.3625 166.80937 39.175 166.80937Q39.971874 166.80937 40.3625 166.18437Q40.753124 165.55937 40.76875 164.23125L40.76875 162.45ZM48.8625 163.93437Q48.8625 165.84062 48.20625 166.77812Q47.565624 167.7 46.175 167.7Q44.815624 167.7 44.159374 166.79375Q43.503124 165.8875 43.471874 164.075L43.471874 162.6375Q43.471874 160.74687 44.1125 159.84062Q44.76875 158.91875 46.159374 158.91875Q47.534374 158.91875 48.190624 159.80937Q48.846874 160.68437 48.8625 162.52812L48.8625 163.93437ZM47.76875 162.45Q47.76875 161.075 47.378124 160.45Q47.003124 159.80937 46.159374 159.80937Q45.33125 159.80937 44.940624 160.45Q44.565624 161.075 44.565624 162.37187L44.565624 164.10625Q44.565624 165.48125 44.95625 166.15312Q45.3625 166.80937 46.175 166.80937Q46.971874 166.80937 47.3625 166.18437Q47.753124 165.55937 47.76875 164.23125L47.76875 162.45Z" fill-rule="nonzero"/><path fill="#757575" d="M27.08125 99.00729L28.26875 99.00729L28.26875 99.88229L27.08125 99.88229L27.08125 101.86667L26.003124 101.86667L26.003124 99.88229L22.1125 99.88229L22.1125 99.24167L25.925 93.33542L27.08125 93.33542L27.08125 99.00729ZM23.346874 99.00729L26.003124 99.00729L26.003124 94.81979L25.8625 95.05417L23.346874 99.00729ZM34.8625 98.22604Q34.8625 100.13229 34.20625 101.06979Q33.565624 101.99167 32.175 101.99167Q30.815624 101.99167 30.159374 101.08542Q29.503124 100.17917 29.471874 98.36667L29.471874 96.92917Q29.471874 95.03854 30.1125 94.13229Q30.76875 93.21042 32.159374 93.21042Q33.534374 93.21042 34.190624 94.10104Q34.846874 94.97604 34.8625 96.81979L34.8625 98.22604ZM33.76875 96.74167Q33.76875 95.36667 33.378124 94.74167Q33.003124 94.10104 32.159374 94.10104Q31.33125 94.10104 30.940624 94.74167Q30.565624 95.36667 30.565624 96.66354L30.565624 98.39792Q30.565624 99.77292 30.95625 100.44479Q31.3625 101.10104 32.175 101.10104Q32.971874 101.10104 33.3625 100.47604Q33.753124 99.85104 33.76875 98.52292L33.76875 96.74167ZM41.8625 98.22604Q41.8625 100.13229 41.20625 101.06979Q40.565624 101.99167 39.175 101.99167Q37.815624 101.99167 37.159374 101.08542Q36.503124 100.17917 36.471874 98.36667L36.471874 96.92917Q36.471874 95.03854 37.1125 94.13229Q37.76875 93.21042 39.159374 93.21042Q40.534374 93.21042 41.190624 94.10104Q41.846874 94.97604 41.8625 96.81979L41.8625 98.22604ZM40.76875 96.74167Q40.76875 95.36667 40.378124 94.74167Q40.003124 94.10104 39.159374 94.10104Q38.33125 94.10104 37.940624 94.74167Q37.565624 95.36667 37.565624 96.66354L37.565624 98.39792Q37.565624 99.77292 37.95625 100.44479Q38.3625 101.10104 39.175 101.10104Q39.971874 101.10104 40.3625 100.47604Q40.753124 99.85104 40.76875 98.52292L40.76875 96.74167ZM48.8625 98.22604Q48.8625 100.13229 48.20625 101.06979Q47.565624 101.99167 46.175 101.99167Q44.815624 101.99167 44.159374 101.08542Q43.503124 100.17917 43.471874 98.36667L43.471874 96.92917Q43.471874 95.03854 44.1125 94.13229Q44.76875 93.21042 46.159374 93.21042Q47.534374 93.21042 48.190624 94.10104Q48.846874 94.97604 48.8625 96.81979L48.8625 98.22604ZM47.76875 96.74167Q47.76875 95.36667 47.378124 94.74167Q47.003124 94.10104 46.159374 94.10104Q45.33125 94.10104 44.940624 94.74167Q44.565624 95.36667 44.565624 96.66354L44.565624 98.39792Q44.565624 99.77292 44.95625 100.44479Q45.3625 101.10104 46.175 101.10104Q46.971874 101.10104 47.3625 100.47604Q47.753124 99.85104 47.76875 98.52292L47.76875 96.74167Z" fill-rule="nonzero"/><path fill="#757575" d="M80.811775 378.2L79.73365 378.2L79.73365 370.98126L77.54615 371.77814L77.54615 370.79376L80.655525 369.6219L80.811775 369.6219L80.811775 378.2Z" fill-rule="nonzero"/><path fill="#757575" d="M131.33533 378.2L125.741585 378.2L125.741585 377.41876L128.6947 374.1375Q129.35095 373.3875 129.60095 372.9344Q129.85095 372.46564 129.85095 371.96564Q129.85095 371.29376 129.4447 370.8719Q129.05408 370.4344 128.36658 370.4344Q127.56971 370.4344 127.116585 370.90314Q126.66346 371.35626 126.66346 372.1844L125.585335 372.1844Q125.585335 370.9969 126.335335 370.27814Q127.10096 369.54376 128.36658 369.54376Q129.5697 369.54376 130.2572 370.16876Q130.9447 370.79376 130.9447 371.84064Q130.9447 373.09064 129.33533 374.84064L127.054085 377.3094L131.33533 377.3094L131.33533 378.2Z" fill-rule="nonzero"/><path fill="#757575" d="M178.81201 375.34064L179.99951 375.34064L179.99951 376.21564L178.81201 376.21564L178.81201 378.2L177.73389 378.2L177.73389 376.21564L173.84326 376.21564L173.84326 375.575L177.65576 369.66876L178.81201 369.66876L178.81201 375.34064ZM175.07764 375.34064L177.73389 375.34064L177.73389 371.15314L177.59326 371.3875L175.07764 375.34064Z" fill-rule="nonzero"/><path fill="#757575" d="M226.99182 369.66876L226.99182 370.575L226.7887 370.575Q225.52307 370.60626 224.77307 371.34064Q224.02307 372.0594 223.89807 373.3719Q224.58557 372.60626 225.74182 372.60626Q226.8512 372.60626 227.52307 373.3875Q228.19495 374.16876 228.19495 375.41876Q228.19495 376.73126 227.4762 377.52814Q226.75745 378.325 225.5387 378.325Q224.31995 378.325 223.55432 377.3875Q222.80432 376.4344 222.80432 374.95L222.80432 374.54376Q222.80432 372.1844 223.80432 370.9344Q224.80432 369.6844 226.7887 369.66876L226.99182 369.66876ZM225.56995 373.5125Q225.00745 373.5125 224.5387 373.84064Q224.06995 374.16876 223.88245 374.6844L223.88245 375.075Q223.88245 376.1375 224.3512 376.77814Q224.83557 377.41876 225.5387 377.41876Q226.27307 377.41876 226.69495 376.8875Q227.11682 376.34064 227.11682 375.46564Q227.11682 374.59064 226.69495 374.0594Q226.27307 373.5125 225.56995 373.5125Z" fill-rule="nonzero"/><path fill="#757575" d="M276.406 371.8875Q276.406 372.52814 276.06226 373.02814Q275.7185 373.52814 275.156 373.8094Q275.81226 374.09064 276.20288 374.65314Q276.5935 375.2 276.5935 375.90314Q276.5935 376.9969 275.8435 377.66876Q275.10913 378.325 273.89038 378.325Q272.656 378.325 271.906 377.66876Q271.17163 376.9969 271.17163 375.90314Q271.17163 375.2 271.54663 374.65314Q271.92163 374.09064 272.5935 373.8094Q272.031 373.52814 271.70288 373.02814Q271.37476 372.52814 271.37476 371.8875Q271.37476 370.8094 272.06226 370.1844Q272.74976 369.54376 273.89038 369.54376Q275.01538 369.54376 275.70288 370.1844Q276.406 370.8094 276.406 371.8875ZM275.51538 375.8719Q275.51538 375.15314 275.06226 374.71564Q274.60913 374.2625 273.87476 374.2625Q273.14038 374.2625 272.68726 374.71564Q272.24976 375.15314 272.24976 375.8875Q272.24976 376.60626 272.68726 377.02814Q273.12476 377.4344 273.89038 377.4344Q274.64038 377.4344 275.07788 377.0125Q275.51538 376.59064 275.51538 375.8719ZM273.89038 370.4344Q273.24976 370.4344 272.8435 370.84064Q272.45288 371.23126 272.45288 371.91876Q272.45288 372.5594 272.8435 372.96564Q273.23413 373.3719 273.87476 373.3719Q274.531 373.3719 274.92163 372.96564Q275.31226 372.5594 275.31226 371.91876Q275.31226 371.2625 274.906 370.85626Q274.49976 370.4344 273.89038 370.4344Z" fill-rule="nonzero"/><path fill="#757575" d="M319.77332 378.2L318.6952 378.2L318.6952 370.98126L316.5077 371.77814L316.5077 370.79376L319.61707 369.6219L319.77332 369.6219L319.77332 378.2ZM328.5702 374.5594Q328.5702 376.46564 327.91394 377.40314Q327.27332 378.325 325.8827 378.325Q324.52332 378.325 323.86707 377.41876Q323.21082 376.5125 323.17957 374.7L323.17957 373.2625Q323.17957 371.3719 323.8202 370.46564Q324.47644 369.54376 325.86707 369.54376Q327.24207 369.54376 327.89832 370.4344Q328.55457 371.3094 328.5702 373.15314L328.5702 374.5594ZM327.47644 373.075Q327.47644 371.7 327.08582 371.075Q326.71082 370.4344 325.86707 370.4344Q325.03894 370.4344 324.64832 371.075Q324.27332 371.7 324.27332 372.9969L324.27332 374.73126Q324.27332 376.10626 324.66394 376.77814Q325.0702 377.4344 325.8827 377.4344Q326.67957 377.4344 327.0702 376.8094Q327.46082 376.1844 327.47644 374.85626L327.47644 373.075Z" fill-rule="nonzero"/><path fill="#757575" d="M368.26562 378.2L367.1875 378.2L367.1875 370.98126L365.0 371.77814L365.0 370.79376L368.10938 369.6219L368.26562 369.6219L368.26562 378.2ZM377.29688 378.2L371.70312 378.2L371.70312 377.41876L374.65625 374.1375Q375.3125 373.3875 375.5625 372.9344Q375.8125 372.46564 375.8125 371.96564Q375.8125 371.29376 375.40625 370.8719Q375.01562 370.4344 374.32812 370.4344Q373.53125 370.4344 373.07812 370.90314Q372.625 371.35626 372.625 372.1844L371.54688 372.1844Q371.54688 370.9969 372.29688 370.27814Q373.0625 369.54376 374.32812 369.54376Q375.53125 369.54376 376.21875 370.16876Q376.90625 370.79376 376.90625 371.84064Q376.90625 373.09064 375.29688 374.84064L373.01562 377.3094L377.29688 377.3094L377.29688 378.2Z" fill-rule="nonzero"/><path fill="#757575" d="M416.75793 378.2L415.6798 378.2L415.6798 370.98126L413.4923 371.77814L413.4923 370.79376L416.60168 369.6219L416.75793 369.6219L416.75793 378.2ZM424.77356 375.34064L425.96106 375.34064L425.96106 376.21564L424.77356 376.21564L424.77356 378.2L423.69543 378.2L423.69543 376.21564L419.8048 376.21564L419.8048 375.575L423.6173 369.66876L424.77356 369.66876L424.77356 375.34064ZM421.03918 375.34064L423.69543 375.34064L423.69543 371.15314L423.5548 371.3875L421.03918 375.34064Z" fill-rule="nonzero"/><path fill="#757575" d="M465.25024 378.2L464.17212 378.2L464.17212 370.98126L461.98462 371.77814L461.98462 370.79376L465.094 369.6219L465.25024 369.6219L465.25024 378.2ZM472.95337 369.66876L472.95337 370.575L472.75024 370.575Q471.48462 370.60626 470.73462 371.34064Q469.98462 372.0594 469.85962 373.3719Q470.54712 372.60626 471.70337 372.60626Q472.81274 372.60626 473.48462 373.3875Q474.1565 374.16876 474.1565 375.41876Q474.1565 376.73126 473.43774 377.52814Q472.719 378.325 471.50024 378.325Q470.2815 378.325 469.51587 377.3875Q468.76587 376.4344 468.76587 374.95L468.76587 374.54376Q468.76587 372.1844 469.76587 370.9344Q470.76587 369.6844 472.75024 369.66876L472.95337 369.66876ZM471.5315 373.5125Q470.969 373.5125 470.50024 373.84064Q470.0315 374.16876 469.844 374.6844L469.844 375.075Q469.844 376.1375 470.31274 376.77814Q470.79712 377.41876 471.50024 377.41876Q472.23462 377.41876 472.6565 376.8875Q473.07837 376.34064 473.07837 375.46564Q473.07837 374.59064 472.6565 374.0594Q472.23462 373.5125 471.5315 373.5125Z" fill-rule="nonzero"/><path fill="#757575" d="M513.74255 378.2L512.6644 378.2L512.6644 370.98126L510.47693 371.77814L510.47693 370.79376L513.5863 369.6219L513.74255 369.6219L513.74255 378.2ZM522.36755 371.8875Q522.36755 372.52814 522.0238 373.02814Q521.68005 373.52814 521.11755 373.8094Q521.7738 374.09064 522.1644 374.65314Q522.55505 375.2 522.55505 375.90314Q522.55505 376.9969 521.80505 377.66876Q521.0707 378.325 519.8519 378.325Q518.61755 378.325 517.86755 377.66876Q517.1332 376.9969 517.1332 375.90314Q517.1332 375.2 517.5082 374.65314Q517.8832 374.09064 518.55505 373.8094Q517.99255 373.52814 517.6644 373.02814Q517.3363 372.52814 517.3363 371.8875Q517.3363 370.8094 518.0238 370.1844Q518.7113 369.54376 519.8519 369.54376Q520.9769 369.54376 521.6644 370.1844Q522.36755 370.8094 522.36755 371.8875ZM521.4769 375.8719Q521.4769 375.15314 521.0238 374.71564Q520.5707 374.2625 519.8363 374.2625Q519.1019 374.2625 518.6488 374.71564Q518.2113 375.15314 518.2113 375.8875Q518.2113 376.60626 518.6488 377.02814Q519.0863 377.4344 519.8519 377.4344Q520.6019 377.4344 521.0394 377.0125Q521.4769 376.59064 521.4769 375.8719ZM519.8519 370.4344Q519.2113 370.4344 518.80505 370.84064Q518.4144 371.23126 518.4144 371.91876Q518.4144 372.5594 518.80505 372.96564Q519.1957 373.3719 519.8363 373.3719Q520.49255 373.3719 520.8832 372.96564Q521.2738 372.5594 521.2738 371.91876Q521.2738 371.2625 520.86755 370.85626Q520.4613 370.4344 519.8519 370.4344Z" fill-rule="nonzero"/><path fill="#757575" d="M564.2661 378.2L558.67236 378.2L558.67236 377.41876L561.6255 374.1375Q562.28174 373.3875 562.53174 372.9344Q562.78174 372.46564 562.78174 371.96564Q562.78174 371.29376 562.3755 370.8719Q561.98486 370.4344 561.29736 370.4344Q560.5005 370.4344 560.04736 370.90314Q559.59424 371.35626 559.59424 372.1844L558.5161 372.1844Q558.5161 370.9969 559.2661 370.27814Q560.03174 369.54376 561.29736 369.54376Q562.5005 369.54376 563.188 370.16876Q563.8755 370.79376 563.8755 371.84064Q563.8755 373.09064 562.2661 374.84064L559.98486 377.3094L564.2661 377.3094L564.2661 378.2ZM571.03174 374.5594Q571.03174 376.46564 570.3755 377.40314Q569.73486 378.325 568.34424 378.325Q566.98486 378.325 566.3286 377.41876Q565.67236 376.5125 565.6411 374.7L565.6411 373.2625Q565.6411 371.3719 566.28174 370.46564Q566.938 369.54376 568.3286 369.54376Q569.7036 369.54376 570.35986 370.4344Q571.0161 371.3094 571.03174 373.15314L571.03174 374.5594ZM569.938 373.075Q569.938 371.7 569.54736 371.075Q569.17236 370.4344 568.3286 370.4344Q567.5005 370.4344 567.10986 371.075Q566.73486 371.7 566.73486 372.9969L566.73486 374.73126Q566.73486 376.10626 567.1255 376.77814Q567.53174 377.4344 568.34424 377.4344Q569.1411 377.4344 569.53174 376.8094Q569.92236 376.1844 569.938 374.85626L569.938 373.075Z" fill-rule="nonzero"/><path fill="#757575" d="M612.7584 378.2L607.1647 378.2L607.1647 377.41876L610.1178 374.1375Q610.77405 373.3875 611.02405 372.9344Q611.27405 372.46564 611.27405 371.96564Q611.27405 371.29376 610.8678 370.8719Q610.4772 370.4344 609.7897 370.4344Q608.9928 370.4344 608.5397 370.90314Q608.08655 371.35626 608.08655 372.1844L607.0084 372.1844Q607.0084 370.9969 607.7584 370.27814Q608.52405 369.54376 609.7897 369.54376Q610.9928 369.54376 611.6803 370.16876Q612.3678 370.79376 612.3678 371.84064Q612.3678 373.09064 610.7584 374.84064L608.4772 377.3094L612.7584 377.3094L612.7584 378.2ZM619.7584 378.2L614.1647 378.2L614.1647 377.41876L617.1178 374.1375Q617.77405 373.3875 618.02405 372.9344Q618.27405 372.46564 618.27405 371.96564Q618.27405 371.29376 617.8678 370.8719Q617.4772 370.4344 616.7897 370.4344Q615.9928 370.4344 615.5397 370.90314Q615.08655 371.35626 615.08655 372.1844L614.0084 372.1844Q614.0084 370.9969 614.7584 370.27814Q615.52405 369.54376 616.7897 369.54376Q617.9928 369.54376 618.6803 370.16876Q619.3678 370.79376 619.3678 371.84064Q619.3678 373.09064 617.7584 374.84064L615.4772 377.3094L619.7584 377.3094L619.7584 378.2Z" fill-rule="nonzero"/><path fill="#757575" d="M661.25073 378.2L655.657 378.2L655.657 377.41876L658.6101 374.1375Q659.26636 373.3875 659.51636 372.9344Q659.76636 372.46564 659.76636 371.96564Q659.76636 371.29376 659.3601 370.8719Q658.9695 370.4344 658.282 370.4344Q657.4851 370.4344 657.032 370.90314Q656.57886 371.35626 656.57886 372.1844L655.50073 372.1844Q655.50073 370.9969 656.25073 370.27814Q657.01636 369.54376 658.282 369.54376Q659.4851 369.54376 660.1726 370.16876Q660.8601 370.79376 660.8601 371.84064Q660.8601 373.09064 659.25073 374.84064L656.9695 377.3094L661.25073 377.3094L661.25073 378.2ZM667.2351 375.34064L668.4226 375.34064L668.4226 376.21564L667.2351 376.21564L667.2351 378.2L666.157 378.2L666.157 376.21564L662.26636 376.21564L662.26636 375.575L666.07886 369.66876L667.2351 369.66876L667.2351 375.34064ZM663.50073 375.34064L666.157 375.34064L666.157 371.15314L666.01636 371.3875L663.50073 375.34064Z" fill-rule="nonzero"/><path stroke="#4285f4" stroke-width="4.0" stroke-linecap="butt" d="M217.0 67.833336L229.0 67.833336" fill-rule="nonzero"/><path fill="#757575" d="M241.125 68.88021L239.10938 68.88021L239.10938 72.333336L237.98438 72.333336L237.98438 63.802086L240.8125 63.802086Q242.25 63.802086 243.01562 64.458336Q243.79688 65.114586 243.79688 66.364586Q243.79688 67.16146 243.35938 67.75521Q242.9375 68.34896 242.17188 68.645836L244.17188 72.25521L244.17188 72.333336L242.96875 72.333336L241.125 68.88021ZM239.10938 67.958336L240.84375 67.958336Q241.6875 67.958336 242.17188 67.53646Q242.67188 67.09896 242.67188 66.364586Q242.67188 65.583336 242.20312 65.16146Q241.73438 64.739586 240.84375 64.72396L239.10938 64.72396L239.10938 67.958336ZM248.73438 72.333336Q248.64062 72.145836 248.57812 71.66146Q247.82812 72.458336 246.78125 72.458336Q245.84375 72.458336 245.23438 71.927086Q244.64062 71.395836 244.64062 70.56771Q244.64062 69.583336 245.39062 69.03646Q246.14062 68.489586 247.51562 68.489586L248.5625 68.489586L248.5625 67.989586Q248.5625 67.427086 248.21875 67.09896Q247.89062 66.75521 247.21875 66.75521Q246.64062 66.75521 246.25 67.052086Q245.85938 67.333336 245.85938 67.75521L244.76562 67.75521Q244.76562 67.270836 245.09375 66.833336Q245.4375 66.395836 246.01562 66.145836Q246.59375 65.88021 247.28125 65.88021Q248.39062 65.88021 249.0 66.427086Q249.625 66.97396 249.65625 67.927086L249.65625 70.84896Q249.65625 71.72396 249.875 72.239586L249.875 72.333336L248.73438 72.333336ZM246.9375 71.50521Q247.45312 71.50521 247.90625 71.239586Q248.35938 70.97396 248.5625 70.552086L248.5625 69.25521L247.71875 69.25521Q245.71875 69.25521 245.71875 70.427086Q245.71875 70.927086 246.0625 71.22396Q246.40625 71.50521 246.9375 71.50521ZM257.4375 70.833336L258.65625 65.989586L259.73438 65.989586L257.89062 72.333336L257.01562 72.333336L255.46875 67.520836L253.96875 72.333336L253.09375 72.333336L251.25 65.989586L252.32812 65.989586L253.57812 70.739586L255.0625 65.989586L255.92188 65.989586L257.4375 70.833336ZM270.54688 72.333336L269.42188 72.333336L269.42188 68.395836L265.10938 68.395836L265.10938 72.333336L263.98438 72.333336L263.98438 63.802086L265.10938 63.802086L265.10938 67.47396L269.42188 67.47396L269.42188 63.802086L270.54688 63.802086L270.54688 72.333336ZM274.89062 70.739586L276.375 65.989586L277.53125 65.989586L274.98438 73.31771Q274.39062 74.895836 273.10938 74.895836L272.89062 74.88021L272.5 74.802086L272.5 73.927086L272.78125 73.94271Q273.34375 73.94271 273.64062 73.72396Q273.95312 73.50521 274.15625 72.91146L274.39062 72.25521L272.125 65.989586L273.3125 65.989586L274.89062 70.739586ZM284.17188 69.239586Q284.17188 70.677086 283.51562 71.56771Q282.85938 72.458336 281.71875 72.458336Q280.5625 72.458336 279.90625 71.72396L279.90625 74.770836L278.82812 74.770836L278.82812 65.989586L279.8125 65.989586L279.85938 66.69271Q280.53125 65.88021 281.70312 65.88021Q282.84375 65.88021 283.5 66.739586Q284.17188 67.59896 284.17188 69.13021L284.17188 69.239586ZM283.09375 69.114586Q283.09375 68.03646 282.625 67.427086Q282.17188 66.802086 281.375 66.802086Q280.39062 66.802086 279.90625 67.66146L279.90625 70.69271Q280.39062 71.56771 281.39062 71.56771Q282.17188 71.56771 282.625 70.958336Q283.09375 70.333336 283.09375 69.114586ZM288.45312 72.458336Q287.15625 72.458336 286.34375 71.614586Q285.54688 70.75521 285.54688 69.333336L285.54688 69.145836Q285.54688 68.19271 285.90625 67.458336Q286.26562 66.708336 286.90625 66.302086Q287.5625 65.88021 288.3125 65.88021Q289.54688 65.88021 290.23438 66.69271Q290.92188 67.50521 290.92188 69.020836L290.92188 69.47396L286.625 69.47396Q286.65625 70.41146 287.17188 70.989586Q287.70312 71.56771 288.51562 71.56771Q289.07812 71.56771 289.46875 71.333336Q289.875 71.09896 290.1875 70.708336L290.84375 71.22396Q290.04688 72.458336 288.45312 72.458336ZM288.3125 66.770836Q287.65625 66.770836 287.20312 67.25521Q286.76562 67.72396 286.67188 68.583336L289.84375 68.583336L289.84375 68.50521Q289.79688 67.677086 289.39062 67.22396Q289.0 66.770836 288.3125 66.770836ZM294.89062 66.958336Q294.64062 66.927086 294.35938 66.927086Q293.28125 66.927086 292.90625 67.833336L292.90625 72.333336L291.82812 72.333336L291.82812 65.989586L292.875 65.989586L292.89062 66.72396Q293.42188 65.88021 294.40625 65.88021Q294.71875 65.88021 294.89062 65.958336L294.89062 66.958336ZM298.07812 69.145836L295.21875 69.145836L295.21875 68.270836L298.07812 68.270836L298.07812 69.145836ZM301.8125 70.833336L304.25 63.802086L305.48438 63.802086L302.3125 72.333336L301.32812 72.333336L298.17188 63.802086L299.39062 63.802086L301.8125 70.833336ZM312.07812 69.145836L309.21875 69.145836L309.21875 68.270836L312.07812 68.270836L312.07812 69.145836ZM319.125 68.88021L317.10938 68.88021L317.10938 72.333336L315.98438 72.333336L315.98438 63.802086L318.8125 63.802086Q320.25 63.802086 321.01562 64.458336Q321.79688 65.114586 321.79688 66.364586Q321.79688 67.16146 321.35938 67.75521Q320.9375 68.34896 320.17188 68.645836L322.17188 72.25521L322.17188 72.333336L320.96875 72.333336L319.125 68.88021ZM317.10938 67.958336L318.84375 67.958336Q319.6875 67.958336 320.17188 67.53646Q320.67188 67.09896 320.67188 66.364586Q320.67188 65.583336 320.20312 65.16146Q319.73438 64.739586 318.84375 64.72396L317.10938 64.72396L317.10938 67.958336ZM325.45312 72.458336Q324.15625 72.458336 323.34375 71.614586Q322.54688 70.75521 322.54688 69.333336L322.54688 69.145836Q322.54688 68.19271 322.90625 67.458336Q323.26562 66.708336 323.90625 66.302086Q324.5625 65.88021 325.3125 65.88021Q326.54688 65.88021 327.23438 66.69271Q327.92188 67.50521 327.92188 69.020836L327.92188 69.47396L323.625 69.47396Q323.65625 70.41146 324.17188 70.989586Q324.70312 71.56771 325.51562 71.56771Q326.07812 71.56771 326.46875 71.333336Q326.875 71.09896 327.1875 70.708336L327.84375 71.22396Q327.04688 72.458336 325.45312 72.458336ZM325.3125 66.770836Q324.65625 66.770836 324.20312 67.25521Q323.76562 67.72396 323.67188 68.583336L326.84375 68.583336L326.84375 68.50521Q326.79688 67.677086 326.39062 67.22396Q326.0 66.770836 325.3125 66.770836ZM331.35938 71.56771Q331.9375 71.56771 332.375 71.22396Q332.8125 70.864586 332.85938 70.333336L333.89062 70.333336Q333.85938 70.88021 333.5 71.38021Q333.15625 71.864586 332.57812 72.16146Q332.01562 72.458336 331.35938 72.458336Q330.0625 72.458336 329.29688 71.59896Q328.54688 70.72396 328.54688 69.22396L328.54688 69.03646Q328.54688 68.114586 328.875 67.395836Q329.21875 66.677086 329.84375 66.28646Q330.48438 65.88021 331.35938 65.88021Q332.42188 65.88021 333.125 66.520836Q333.84375 67.145836 333.89062 68.177086L332.85938 68.177086Q332.8125 67.552086 332.39062 67.16146Q331.96875 66.770836 331.35938 66.770836Q330.53125 66.770836 330.07812 67.364586Q329.625 67.958336 329.625 69.083336L329.625 69.28646Q329.625 70.38021 330.07812 70.97396Q330.53125 71.56771 331.35938 71.56771ZM337.45312 72.458336Q336.15625 72.458336 335.34375 71.614586Q334.54688 70.75521 334.54688 69.333336L334.54688 69.145836Q334.54688 68.19271 334.90625 67.458336Q335.26562 66.708336 335.90625 66.302086Q336.5625 65.88021 337.3125 65.88021Q338.54688 65.88021 339.23438 66.69271Q339.92188 67.50521 339.92188 69.020836L339.92188 69.47396L335.625 69.47396Q335.65625 70.41146 336.17188 70.989586Q336.70312 71.56771 337.51562 71.56771Q338.07812 71.56771 338.46875 71.333336Q338.875 71.09896 339.1875 70.708336L339.84375 71.22396Q339.04688 72.458336 337.45312 72.458336ZM337.3125 66.770836Q336.65625 66.770836 336.20312 67.25521Q335.76562 67.72396 335.67188 68.583336L338.84375 68.583336L338.84375 68.50521Q338.79688 67.677086 338.39062 67.22396Q338.0 66.770836 337.3125 66.770836ZM342.0 72.333336L340.92188 72.333336L340.92188 65.989586L342.0 65.989586L342.0 72.333336ZM340.82812 64.31771Q340.82812 64.052086 340.98438 63.864586Q341.15625 63.677086 341.46875 63.677086Q341.78125 63.677086 341.9375 63.864586Q342.10938 64.052086 342.10938 64.31771Q342.10938 64.56771 341.9375 64.75521Q341.78125 64.927086 341.46875 64.927086Q341.15625 64.927086 340.98438 64.75521Q340.82812 64.56771 340.82812 64.31771ZM345.90625 70.864586L347.48438 65.989586L348.59375 65.989586L346.3125 72.333336L345.48438 72.333336L343.1875 65.989586L344.29688 65.989586L345.90625 70.864586ZM352.45312 72.458336Q351.15625 72.458336 350.34375 71.614586Q349.54688 70.75521 349.54688 69.333336L349.54688 69.145836Q349.54688 68.19271 349.90625 67.458336Q350.26562 66.708336 350.90625 66.302086Q351.5625 65.88021 352.3125 65.88021Q353.54688 65.88021 354.23438 66.69271Q354.92188 67.50521 354.92188 69.020836L354.92188 69.47396L350.625 69.47396Q350.65625 70.41146 351.17188 70.989586Q351.70312 71.56771 352.51562 71.56771Q353.07812 71.56771 353.46875 71.333336Q353.875 71.09896 354.1875 70.708336L354.84375 71.22396Q354.04688 72.458336 352.45312 72.458336ZM352.3125 66.770836Q351.65625 66.770836 351.20312 67.25521Q350.76562 67.72396 350.67188 68.583336L353.84375 68.583336L353.84375 68.50521Q353.79688 67.677086 353.39062 67.22396Q353.0 66.770836 352.3125 66.770836ZM358.89062 66.958336Q358.64062 66.927086 358.35938 66.927086Q357.28125 66.927086 356.90625 67.833336L356.90625 72.333336L355.82812 72.333336L355.82812 65.989586L356.875 65.989586L356.89062 66.72396Q357.42188 65.88021 358.40625 65.88021Q358.71875 65.88021 358.89062 65.958336L358.89062 66.958336Z" fill-rule="nonzero"/><path stroke="#db4437" stroke-width="4.0" stroke-linecap="butt" d="M375.0 67.833336L387.0 67.833336" fill-rule="nonzero"/><path fill="#757575" d="M402.26562 69.63021Q402.10938 70.97396 401.26562 71.72396Q400.42188 72.458336 399.03125 72.458336Q397.51562 72.458336 396.60938 71.38021Q395.70312 70.28646 395.70312 68.458336L395.70312 67.645836Q395.70312 66.458336 396.125 65.552086Q396.54688 64.645836 397.32812 64.16146Q398.10938 63.677086 399.125 63.677086Q400.48438 63.677086 401.29688 64.44271Q402.125 65.208336 402.26562 66.53646L401.14062 66.53646Q400.98438 65.520836 400.5 65.06771Q400.01562 64.614586 399.125 64.614586Q398.04688 64.614586 397.4375 65.41146Q396.82812 66.208336 396.82812 67.677086L396.82812 68.50521Q396.82812 69.895836 397.40625 70.72396Q397.98438 71.53646 399.03125 71.53646Q399.96875 71.53646 400.46875 71.114586Q400.96875 70.677086 401.14062 69.63021L402.26562 69.63021ZM403.53125 69.09896Q403.53125 68.177086 403.89062 67.427086Q404.26562 66.677086 404.92188 66.28646Q405.57812 65.88021 406.40625 65.88021Q407.70312 65.88021 408.5 66.770836Q409.3125 67.66146 409.3125 69.16146L409.3125 69.239586Q409.3125 70.16146 408.95312 70.895836Q408.59375 71.63021 407.9375 72.052086Q407.28125 72.458336 406.42188 72.458336Q405.14062 72.458336 404.32812 71.56771Q403.53125 70.66146 403.53125 69.177086L403.53125 69.09896ZM404.625 69.239586Q404.625 70.28646 405.10938 70.927086Q405.60938 71.56771 406.42188 71.56771Q407.25 71.56771 407.73438 70.927086Q408.21875 70.270836 408.21875 69.09896Q408.21875 68.06771 407.71875 67.427086Q407.23438 66.770836 406.40625 66.770836Q405.60938 66.770836 405.10938 67.41146Q404.625 68.03646 404.625 69.239586ZM411.84375 65.989586L411.875 66.78646Q412.60938 65.88021 413.78125 65.88021Q415.79688 65.88021 415.8125 68.145836L415.8125 72.333336L414.71875 72.333336L414.71875 68.13021Q414.71875 67.458336 414.40625 67.13021Q414.10938 66.802086 413.45312 66.802086Q412.92188 66.802086 412.51562 67.083336Q412.125 67.364586 411.90625 67.81771L411.90625 72.333336L410.82812 72.333336L410.82812 65.989586L411.84375 65.989586ZM419.29688 64.458336L419.29688 65.989586L420.46875 65.989586L420.46875 66.833336L419.29688 66.833336L419.29688 70.75521Q419.29688 71.145836 419.45312 71.333336Q419.60938 71.520836 419.98438 71.520836Q420.17188 71.520836 420.5 71.458336L420.5 72.333336Q420.07812 72.458336 419.67188 72.458336Q418.95312 72.458336 418.57812 72.020836Q418.20312 71.56771 418.20312 70.75521L418.20312 66.833336L417.04688 66.833336L417.04688 65.989586L418.20312 65.989586L418.20312 64.458336L419.29688 64.458336ZM424.89062 66.958336Q424.64062 66.927086 424.35938 66.927086Q423.28125 66.927086 422.90625 67.833336L422.90625 72.333336L421.82812 72.333336L421.82812 65.989586L422.875 65.989586L422.89062 66.72396Q423.42188 65.88021 424.40625 65.88021Q424.71875 65.88021 424.89062 65.958336L424.89062 66.958336ZM429.73438 72.333336Q429.64062 72.145836 429.57812 71.66146Q428.82812 72.458336 427.78125 72.458336Q426.84375 72.458336 426.23438 71.927086Q425.64062 71.395836 425.64062 70.56771Q425.64062 69.583336 426.39062 69.03646Q427.14062 68.489586 428.51562 68.489586L429.5625 68.489586L429.5625 67.989586Q429.5625 67.427086 429.21875 67.09896Q428.89062 66.75521 428.21875 66.75521Q427.64062 66.75521 427.25 67.052086Q426.85938 67.333336 426.85938 67.75521L425.76562 67.75521Q425.76562 67.270836 426.09375 66.833336Q426.4375 66.395836 427.01562 66.145836Q427.59375 65.88021 428.28125 65.88021Q429.39062 65.88021 430.0 66.427086Q430.625 66.97396 430.65625 67.927086L430.65625 70.84896Q430.65625 71.72396 430.875 72.239586L430.875 72.333336L429.73438 72.333336ZM427.9375 71.50521Q428.45312 71.50521 428.90625 71.239586Q429.35938 70.97396 429.5625 70.552086L429.5625 69.25521L428.71875 69.25521Q426.71875 69.25521 426.71875 70.427086Q426.71875 70.927086 427.0625 71.22396Q427.40625 71.50521 427.9375 71.50521ZM434.0 72.333336L432.92188 72.333336L432.92188 65.989586L434.0 65.989586L434.0 72.333336ZM432.82812 64.31771Q432.82812 64.052086 432.98438 63.864586Q433.15625 63.677086 433.46875 63.677086Q433.78125 63.677086 433.9375 63.864586Q434.10938 64.052086 434.10938 64.31771Q434.10938 64.56771 433.9375 64.75521Q433.78125 64.927086 433.46875 64.927086Q433.15625 64.927086 432.98438 64.75521Q432.82812 64.56771 432.82812 64.31771ZM437.0 72.333336L435.92188 72.333336L435.92188 63.333336L437.0 63.333336L437.0 72.333336ZM444.07812 69.145836L441.21875 69.145836L441.21875 68.270836L444.07812 68.270836L444.07812 69.145836ZM451.125 68.88021L449.10938 68.88021L449.10938 72.333336L447.98438 72.333336L447.98438 63.802086L450.8125 63.802086Q452.25 63.802086 453.01562 64.458336Q453.79688 65.114586 453.79688 66.364586Q453.79688 67.16146 453.35938 67.75521Q452.9375 68.34896 452.17188 68.645836L454.17188 72.25521L454.17188 72.333336L452.96875 72.333336L451.125 68.88021ZM449.10938 67.958336L450.84375 67.958336Q451.6875 67.958336 452.17188 67.53646Q452.67188 67.09896 452.67188 66.364586Q452.67188 65.583336 452.20312 65.16146Q451.73438 64.739586 450.84375 64.72396L449.10938 64.72396L449.10938 67.958336ZM457.45312 72.458336Q456.15625 72.458336 455.34375 71.614586Q454.54688 70.75521 454.54688 69.333336L454.54688 69.145836Q454.54688 68.19271 454.90625 67.458336Q455.26562 66.708336 455.90625 66.302086Q456.5625 65.88021 457.3125 65.88021Q458.54688 65.88021 459.23438 66.69271Q459.92188 67.50521 459.92188 69.020836L459.92188 69.47396L455.625 69.47396Q455.65625 70.41146 456.17188 70.989586Q456.70312 71.56771 457.51562 71.56771Q458.07812 71.56771 458.46875 71.333336Q458.875 71.09896 459.1875 70.708336L459.84375 71.22396Q459.04688 72.458336 457.45312 72.458336ZM457.3125 66.770836Q456.65625 66.770836 456.20312 67.25521Q455.76562 67.72396 455.67188 68.583336L458.84375 68.583336L458.84375 68.50521Q458.79688 67.677086 458.39062 67.22396Q458.0 66.770836 457.3125 66.770836ZM463.35938 71.56771Q463.9375 71.56771 464.375 71.22396Q464.8125 70.864586 464.85938 70.333336L465.89062 70.333336Q465.85938 70.88021 465.5 71.38021Q465.15625 71.864586 464.57812 72.16146Q464.01562 72.458336 463.35938 72.458336Q462.0625 72.458336 461.29688 71.59896Q460.54688 70.72396 460.54688 69.22396L460.54688 69.03646Q460.54688 68.114586 460.875 67.395836Q461.21875 66.677086 461.84375 66.28646Q462.48438 65.88021 463.35938 65.88021Q464.42188 65.88021 465.125 66.520836Q465.84375 67.145836 465.89062 68.177086L464.85938 68.177086Q464.8125 67.552086 464.39062 67.16146Q463.96875 66.770836 463.35938 66.770836Q462.53125 66.770836 462.07812 67.364586Q461.625 67.958336 461.625 69.083336L461.625 69.28646Q461.625 70.38021 462.07812 70.97396Q462.53125 71.56771 463.35938 71.56771ZM469.45312 72.458336Q468.15625 72.458336 467.34375 71.614586Q466.54688 70.75521 466.54688 69.333336L466.54688 69.145836Q466.54688 68.19271 466.90625 67.458336Q467.26562 66.708336 467.90625 66.302086Q468.5625 65.88021 469.3125 65.88021Q470.54688 65.88021 471.23438 66.69271Q471.92188 67.50521 471.92188 69.020836L471.92188 69.47396L467.625 69.47396Q467.65625 70.41146 468.17188 70.989586Q468.70312 71.56771 469.51562 71.56771Q470.07812 71.56771 470.46875 71.333336Q470.875 71.09896 471.1875 70.708336L471.84375 71.22396Q471.04688 72.458336 469.45312 72.458336ZM469.3125 66.770836Q468.65625 66.770836 468.20312 67.25521Q467.76562 67.72396 467.67188 68.583336L470.84375 68.583336L470.84375 68.50521Q470.79688 67.677086 470.39062 67.22396Q470.0 66.770836 469.3125 66.770836ZM474.0 72.333336L472.92188 72.333336L472.92188 65.989586L474.0 65.989586L474.0 72.333336ZM472.82812 64.31771Q472.82812 64.052086 472.98438 63.864586Q473.15625 63.677086 473.46875 63.677086Q473.78125 63.677086 473.9375 63.864586Q474.10938 64.052086 474.10938 64.31771Q474.10938 64.56771 473.9375 64.75521Q473.78125 64.927086 473.46875 64.927086Q473.15625 64.927086 472.98438 64.75521Q472.82812 64.56771 472.82812 64.31771ZM477.90625 70.864586L479.48438 65.989586L480.59375 65.989586L478.3125 72.333336L477.48438 72.333336L475.1875 65.989586L476.29688 65.989586L477.90625 70.864586ZM484.45312 72.458336Q483.15625 72.458336 482.34375 71.614586Q481.54688 70.75521 481.54688 69.333336L481.54688 69.145836Q481.54688 68.19271 481.90625 67.458336Q482.26562 66.708336 482.90625 66.302086Q483.5625 65.88021 484.3125 65.88021Q485.54688 65.88021 486.23438 66.69271Q486.92188 67.50521 486.92188 69.020836L486.92188 69.47396L482.625 69.47396Q482.65625 70.41146 483.17188 70.989586Q483.70312 71.56771 484.51562 71.56771Q485.07812 71.56771 485.46875 71.333336Q485.875 71.09896 486.1875 70.708336L486.84375 71.22396Q486.04688 72.458336 484.45312 72.458336ZM484.3125 66.770836Q483.65625 66.770836 483.20312 67.25521Q482.76562 67.72396 482.67188 68.583336L485.84375 68.583336L485.84375 68.50521Q485.79688 67.677086 485.39062 67.22396Q485.0 66.770836 484.3125 66.770836ZM490.89062 66.958336Q490.64062 66.927086 490.35938 66.927086Q489.28125 66.927086 488.90625 67.833336L488.90625 72.333336L487.82812 72.333336L487.82812 65.989586L488.875 65.989586L488.89062 66.72396Q489.42188 65.88021 490.40625 65.88021Q490.71875 65.88021 490.89062 65.958336L490.89062 66.958336Z" fill-rule="nonzero"/><path fill="#757575" d="M260.15625 26.58125L260.15625 36.253124Q260.15625 38.253124 258.89062 39.534374Q257.64062 40.815624 255.5 40.971874L255.0 41.003124Q252.65625 41.003124 251.26562 39.7375Q249.89062 38.471874 249.875 36.26875L249.875 26.58125L251.71875 26.58125L251.71875 36.20625Q251.71875 37.753124 252.5625 38.6125Q253.42188 39.45625 255.0 39.45625Q256.59375 39.45625 257.4375 38.6125Q258.28125 37.76875 258.28125 36.221874L258.28125 26.58125L260.15625 26.58125ZM263.15625 40.8L263.15625 26.58125L267.17188 26.58125Q269.01562 26.58125 270.4375 27.409374Q271.875 28.221874 272.64062 29.7375Q273.42188 31.253124 273.4375 33.20625L273.4375 34.1125Q273.4375 36.128124 272.65625 37.64375Q271.875 39.159374 270.4375 39.971874Q269.0 40.784374 267.09375 40.8L263.15625 40.8ZM265.03125 28.128124L265.03125 39.26875L267.0 39.26875Q269.17188 39.26875 270.375 37.925Q271.57812 36.565624 271.57812 34.08125L271.57812 33.253124Q271.57812 30.83125 270.4375 29.4875Q269.29688 28.14375 267.21875 28.128124L265.03125 28.128124ZM278.03125 35.2375L278.03125 40.8L276.15625 40.8L276.15625 26.58125L281.39062 26.58125Q283.73438 26.58125 285.04688 27.76875Q286.375 28.95625 286.375 30.925Q286.375 33.003124 285.07812 34.128124Q283.78125 35.2375 281.375 35.2375L278.03125 35.2375ZM278.03125 33.70625L281.39062 33.70625Q282.90625 33.70625 283.70312 33.003124Q284.5 32.284374 284.5 30.940624Q284.5 29.675 283.70312 28.925Q282.90625 28.159374 281.5 28.128124L278.03125 28.128124L278.03125 33.70625ZM303.96875 28.128124L299.40625 28.128124L299.40625 40.8L297.54688 40.8L297.54688 28.128124L292.98438 28.128124L292.98438 26.58125L303.96875 26.58125L303.96875 28.128124ZM307.67188 31.51875Q308.875 30.034374 310.79688 30.034374Q314.15625 30.034374 314.17188 33.815624L314.17188 40.8L312.375 40.8L312.375 33.8Q312.35938 32.659374 311.84375 32.1125Q311.34375 31.565624 310.25 31.565624Q309.375 31.565624 308.70312 32.034374Q308.04688 32.503124 307.67188 33.26875L307.67188 40.8L305.875 40.8L305.875 25.8L307.67188 25.8L307.67188 31.51875ZM321.96875 31.846874Q321.5625 31.784374 321.09375 31.784374Q319.3125 31.784374 318.67188 33.3L318.67188 40.8L316.875 40.8L316.875 30.2375L318.625 30.2375L318.65625 31.45625Q319.54688 30.034374 321.17188 30.034374Q321.70312 30.034374 321.96875 30.175L321.96875 31.846874ZM323.39062 35.425Q323.39062 33.8625 324.0 32.628124Q324.60938 31.378124 325.6875 30.70625Q326.78125 30.034374 328.1875 30.034374Q330.34375 30.034374 331.67188 31.534374Q333.01562 33.01875 333.01562 35.503124L333.01562 35.628124Q333.01562 37.175 332.42188 38.409374Q331.82812 39.628124 330.71875 40.315624Q329.625 41.003124 328.20312 41.003124Q326.0625 41.003124 324.71875 39.503124Q323.39062 38.003124 323.39062 35.55L323.39062 35.425ZM325.20312 35.628124Q325.20312 37.39375 326.01562 38.45625Q326.84375 39.51875 328.20312 39.51875Q329.57812 39.51875 330.39062 38.440624Q331.20312 37.3625 331.20312 35.425Q331.20312 33.675 330.375 32.596874Q329.54688 31.51875 328.1875 31.51875Q326.84375 31.51875 326.01562 32.58125Q325.20312 33.64375 325.20312 35.628124ZM341.39062 39.753124Q340.34375 41.003124 338.29688 41.003124Q336.60938 41.003124 335.71875 40.01875Q334.84375 39.034374 334.82812 37.1125L334.82812 30.2375L336.64062 30.2375L336.64062 37.065624Q336.64062 39.45625 338.59375 39.45625Q340.65625 39.45625 341.34375 37.925L341.34375 30.2375L343.15625 30.2375L343.15625 40.8L341.4375 40.8L341.39062 39.753124ZM345.4375 35.425Q345.4375 32.95625 346.57812 31.503124Q347.71875 30.034374 349.60938 30.034374Q351.54688 30.034374 352.625 31.409374L352.71875 30.2375L354.35938 30.2375L354.35938 40.55Q354.35938 42.596874 353.14062 43.76875Q351.9375 44.95625 349.875 44.95625Q348.73438 44.95625 347.64062 44.471874Q346.54688 43.9875 345.96875 43.128124L346.90625 42.05Q348.07812 43.4875 349.75 43.4875Q351.07812 43.4875 351.8125 42.7375Q352.54688 42.003124 352.54688 40.659374L352.54688 39.7375Q351.46875 41.003124 349.59375 41.003124Q347.73438 41.003124 346.57812 39.503124Q345.4375 38.003124 345.4375 35.425ZM347.25 35.628124Q347.25 37.425 347.98438 38.440624Q348.71875 39.45625 350.03125 39.45625Q351.75 39.45625 352.54688 37.909374L352.54688 33.08125Q351.71875 31.565624 350.0625 31.565624Q348.73438 31.565624 347.98438 32.596874Q347.25 33.628124 347.25 35.628124ZM358.67188 31.51875Q359.875 30.034374 361.79688 30.034374Q365.15625 30.034374 365.17188 33.815624L365.17188 40.8L363.375 40.8L363.375 33.8Q363.35938 32.659374 362.84375 32.1125Q362.34375 31.565624 361.25 31.565624Q360.375 31.565624 359.70312 32.034374Q359.04688 32.503124 358.67188 33.26875L358.67188 40.8L356.875 40.8L356.875 25.8L358.67188 25.8L358.67188 31.51875ZM376.79688 35.628124Q376.79688 38.05 375.6875 39.534374Q374.59375 41.003124 372.70312 41.003124Q370.78125 41.003124 369.67188 39.76875L369.67188 44.8625L367.875 44.8625L367.875 30.2375L369.51562 30.2375L369.60938 31.409374Q370.70312 30.034374 372.67188 30.034374Q374.57812 30.034374 375.6875 31.471874Q376.79688 32.909374 376.79688 35.471874L376.79688 35.628124ZM374.98438 35.425Q374.98438 33.64375 374.21875 32.6125Q373.46875 31.565624 372.14062 31.565624Q370.5 31.565624 369.67188 33.01875L369.67188 38.08125Q370.48438 39.51875 372.15625 39.51875Q373.45312 39.51875 374.21875 38.4875Q374.98438 37.45625 374.98438 35.425ZM385.39062 39.753124Q384.34375 41.003124 382.29688 41.003124Q380.60938 41.003124 379.71875 40.01875Q378.84375 39.034374 378.82812 37.1125L378.82812 30.2375L380.64062 30.2375L380.64062 37.065624Q380.64062 39.45625 382.59375 39.45625Q384.65625 39.45625 385.34375 37.925L385.34375 30.2375L387.15625 30.2375L387.15625 40.8L385.4375 40.8L385.39062 39.753124ZM392.3125 27.675L392.3125 30.2375L394.29688 30.2375L394.29688 31.628124L392.3125 31.628124L392.3125 38.175Q392.3125 38.815624 392.57812 39.14375Q392.84375 39.45625 393.48438 39.45625Q393.79688 39.45625 394.34375 39.33125L394.34375 40.8Q393.625 41.003124 392.95312 41.003124Q391.75 41.003124 391.125 40.26875Q390.51562 39.534374 390.51562 38.175L390.51562 31.628124L388.59375 31.628124L388.59375 30.2375L390.51562 30.2375L390.51562 27.675L392.3125 27.675ZM405.60938 26.034374L403.75 26.034374L403.75 42.3625L405.60938 42.3625L405.60938 43.846874L401.92188 43.846874L401.92188 24.55L405.60938 24.55L405.60938 26.034374ZM409.57812 26.58125L414.21875 38.175L418.875 26.58125L421.29688 26.58125L421.29688 40.8L419.42188 40.8L419.42188 35.26875L419.60938 29.284374L414.9375 40.8L413.5 40.8L408.84375 29.315624L409.03125 35.26875L409.03125 40.8L407.15625 40.8L407.15625 26.58125L409.57812 26.58125ZM432.8125 35.628124Q432.8125 38.05 431.70312 39.534374Q430.59375 41.003124 428.71875 41.003124Q426.70312 41.003124 425.60938 39.58125L425.53125 40.8L423.875 40.8L423.875 25.8L425.67188 25.8L425.67188 31.39375Q426.76562 30.034374 428.6875 30.034374Q430.60938 30.034374 431.70312 31.4875Q432.8125 32.940624 432.8125 35.471874L432.8125 35.628124ZM431.0 35.425Q431.0 33.58125 430.28125 32.58125Q429.57812 31.565624 428.25 31.565624Q426.45312 31.565624 425.67188 33.2375L425.67188 37.8Q426.5 39.45625 428.26562 39.45625Q429.5625 39.45625 430.28125 38.45625Q431.0 37.45625 431.0 35.425ZM443.79688 35.628124Q443.79688 38.05 442.6875 39.534374Q441.59375 41.003124 439.70312 41.003124Q437.78125 41.003124 436.67188 39.76875L436.67188 44.8625L434.875 44.8625L434.875 30.2375L436.51562 30.2375L436.60938 31.409374Q437.70312 30.034374 439.67188 30.034374Q441.57812 30.034374 442.6875 31.471874Q443.79688 32.909374 443.79688 35.471874L443.79688 35.628124ZM441.98438 35.425Q441.98438 33.64375 441.21875 32.6125Q440.46875 31.565624 439.14062 31.565624Q437.5 31.565624 436.67188 33.01875L436.67188 38.08125Q437.48438 39.51875 439.15625 39.51875Q440.45312 39.51875 441.21875 38.4875Q441.98438 37.45625 441.98438 35.425ZM452.01562 38.003124Q452.01562 37.26875 451.46875 36.8625Q450.92188 36.45625 449.54688 36.159374Q448.17188 35.8625 447.35938 35.45625Q446.5625 35.05 446.17188 34.4875Q445.79688 33.909374 445.79688 33.128124Q445.79688 31.83125 446.89062 30.940624Q447.98438 30.034374 449.70312 30.034374Q451.5 30.034374 452.60938 30.971874Q453.73438 31.89375 453.73438 33.33125L451.90625 33.33125Q451.90625 32.596874 451.28125 32.065624Q450.65625 31.51875 449.70312 31.51875Q448.70312 31.51875 448.14062 31.95625Q447.59375 32.378124 447.59375 33.08125Q447.59375 33.721874 448.10938 34.065624Q448.625 34.39375 449.98438 34.70625Q451.34375 35.003124 452.17188 35.425Q453.01562 35.83125 453.42188 36.425Q453.82812 37.01875 453.82812 37.8625Q453.82812 39.284374 452.6875 40.14375Q451.5625 41.003124 449.75 41.003124Q448.48438 41.003124 447.5 40.55Q446.53125 40.096874 445.96875 39.3Q445.42188 38.4875 445.42188 37.55L447.23438 37.55Q447.28125 38.45625 447.95312 38.9875Q448.64062 39.51875 449.75 39.51875Q450.78125 39.51875 451.39062 39.1125Q452.01562 38.690624 452.01562 38.003124ZM454.59375 24.55L458.28125 24.55L458.28125 43.846874L454.59375 43.846874L454.59375 42.3625L456.46875 42.3625L456.46875 26.034374L454.59375 26.034374L454.59375 24.55Z" fill-rule="nonzero"/></svg>